<svg xmlns="http://www.w3.org/2000/svg" width="1998.235" height="476.387" viewBox="0 0 1998.235 476.387">
  <g id="Group_1" data-name="Group 1" transform="translate(2360.069 724.789)">
    <g id="Page_1" data-name="Page 1" transform="matrix(1, -0.017, 0.017, 1, -2360.069, -715.218)">
      <path id="Fill_1" data-name="Fill 1" d="M664.1,251.22h-.057a23.881,23.881,0,0,1-14.564-4.851c-.543-.411-1.114-.812-1.666-1.2a25.131,25.131,0,0,1-3.562-2.835,34.669,34.669,0,0,0-5.347-4.168c-2.905-1.974-5.909-4.014-7.775-7.346a8.164,8.164,0,0,0-3.143-2.619,13.91,13.91,0,0,1-2.493-1.742c-2.006-1.928-3.951-3.984-5.832-5.972-1.261-1.332-2.558-2.7-3.863-4.027-.761-.771-1.586-1.508-2.383-2.22a33.658,33.658,0,0,1-3.544-3.5,9.378,9.378,0,0,1-1.332-2.533,9.76,9.76,0,0,0-1.279-2.472,64.916,64.916,0,0,0-6.732-7.2,22.313,22.313,0,0,1-6.632-11.217,22.5,22.5,0,0,0-3.38-6.441c-.764-1.142-1.55-2.319-2.195-3.52-1.5-2.789-3.431-6.479-5.03-10.3a10.61,10.61,0,0,1-.587-2.727,8.116,8.116,0,0,0-.842-3.194c-1.725-2.833-3.655-5.6-5.521-8.285-1.261-1.811-2.565-3.684-3.8-5.562a10.889,10.889,0,0,1-1.114-2.73c-.191-.6-.406-1.287-.693-2.072-.275.207-.558.41-.843.616-.655.471-1.311.942-1.91,1.469a8.247,8.247,0,0,0-2.039,3.614c-.587,1.635-1.195,3.325-2.966,4.362-.575.339-.742,1.3-.918,2.327a9.722,9.722,0,0,1-.381,1.651c-.458,1.235-.84,2.573-1.209,3.867-.883,3.089-1.8,6.283-3.808,8.384a25.621,25.621,0,0,0-4.492,7.144c-.416.87-.847,1.769-1.317,2.65-.444.831-.922,1.641-1.385,2.424a24.807,24.807,0,0,0-3.212,7.11c-.614,2.637-2.365,5.055-4.058,7.394-.885,1.223-1.8,2.486-2.549,3.774l-.423.726a114.993,114.993,0,0,0-6.24,11.728,7.053,7.053,0,0,0-.237,3.323,9.674,9.674,0,0,1-.054,2.857c-.5,2.194-1.552,3.217-3.318,3.217a6.016,6.016,0,0,1-1.4-.185,7.714,7.714,0,0,0-1.8-.187c-.7,0-1.424.063-2.125.125l-.094.008c-.68.057-1.384.116-2.067.116-.337,0-.644-.014-.937-.043-.591-.056-1.131-.708-1.653-1.34a10.1,10.1,0,0,0-.71-.8c-3.8-3.7-5.133-8.6-6.424-13.346-.283-1.041-.576-2.117-.889-3.155q-.226-.745-.457-1.494l-.025-.082c-1.549-5.03-3.15-10.231-2.568-15.9.267-2.636-.618-5.439-1.473-8.15-.313-.993-.637-2.02-.9-3.018-.676-2.6-1.442-5.222-2.183-7.755-.4-1.368-.8-2.735-1.189-4.106a1.891,1.891,0,0,1-.037-1.077c.962-2.429.116-4.446-.779-6.581-.827-1.973-1.682-4.013-1.1-6.486a19.55,19.55,0,0,0-3.871,4.826c-1.481,2.329-2.88,4.53-5.749,5.345a2.1,2.1,0,0,1-.141.195c-.113.145-.228.291-.211.418.962,5.98.777,6.319-4.943,9.089-.848.409-1.32,1.726-1.736,2.889-.111.31-.216.6-.324.873a3.961,3.961,0,0,0-.189,1.31,2.472,2.472,0,0,1-.337,1.486q-1.9,2.282-3.783,4.585l-.024.029c-4.3,5.241-8.752,10.66-13.561,15.575a66.469,66.469,0,0,1-9.241,7.409c-1.483,1.051-3.016,2.137-4.476,3.258-.522.4-1.029.856-1.519,1.293a14.1,14.1,0,0,1-3.01,2.246,52.474,52.474,0,0,1-5.02,2.047c-1.256.462-2.551.939-3.791,1.48a13.005,13.005,0,0,0-3.91,2.828,45.427,45.427,0,0,1-7.818.734,27.949,27.949,0,0,1-15.284-4.224l-1.789.687-.042.016c-.824.317-1.674.644-2.407.924-.207.423-.37.848-.528,1.26a4.542,4.542,0,0,1-1.137,1.995l-.553.439c-4.144,3.288-8.429,6.687-12.928,9.609-1.773,1.148-4.5,1.288-6.4,1.293h-.1c-8.185,0-14.144-4.276-17.234-12.368-1.864-4.892-2.174-9.736-2.066-15.5a10.662,10.662,0,0,0-.919-3.77c-.157-.421-.317-.849-.454-1.266-2.211-6.777-1.821-13.784-1.231-20.38a7.16,7.16,0,0,0-.078-1.454c-.039-.324-.079-.655-.089-.978q-.067-2.655-.139-5.308c-.139-5.217-.283-10.6-.362-15.9-.114-7.255-.13-14.487-.13-21.221,0-1.117.055-2.251.108-3.347.068-1.39.137-2.823.1-4.232a3.054,3.054,0,0,0-.783-1.535,8.2,8.2,0,0,1-.5-.711c-.195.073-.391.142-.585.21s-.4.142-.6.211q-.324,2.54-.633,5.082l-.011.091c-.545,4.423-1.108,8.993-1.787,13.468a20.785,20.785,0,0,1-1.93,6.082c-2.563,5.126-1.865,10.52-1.189,15.736q.092.711.181,1.415a7.046,7.046,0,0,1-1.192,4.588,9.68,9.68,0,0,0-1.047,2.416,47.4,47.4,0,0,1-2.493,7.065c-.664,1.607-1.35,3.267-1.894,4.938a4.949,4.949,0,0,0,.773,3.65c2.642,4.2,2.583,6.618-.254,10.369a6.548,6.548,0,0,0-.812,1.69c-.065.177-.129.35-.2.519q-.342.882-.691,1.762c-.716,1.812-1.449,3.67-2.062,5.532-.661,2.012-.668,3.457-.021,4.416a3.669,3.669,0,0,0,2.978,1.338l-.929,2.99c-.677,2.163-1.317,4.205-1.886,6.29-1.017,3.753-2.414,5.284-4.821,5.284a10.961,10.961,0,0,1-3.68-.817.8.8,0,0,0-.279-.066.282.282,0,0,0-.08.01,7.4,7.4,0,0,1-2.079.307c-2.261,0-4.14-1.069-6.128-2.2a14.442,14.442,0,0,0-5.855-2.276c.19-.438.359-.854.523-1.256a20.364,20.364,0,0,1,1.1-2.406c1.837-3.186.784-6.148-.235-9.013a18.976,18.976,0,0,1-1.213-4.574,68.932,68.932,0,0,0-2.133-10.774c-.532-2.095-1.081-4.258-1.5-6.4a52.5,52.5,0,0,1-.656-5.22c-.146-1.588-.3-3.231-.581-4.821-.494-2.8-1.109-5.621-1.7-8.353-.426-1.958-.866-3.976-1.26-5.976a15.425,15.425,0,0,1-.216-2.378,18.164,18.164,0,0,0-.155-2.034c-.16-1.092-.375-2.2-.583-3.262s-.426-2.186-.586-3.284c-.115-.794-.164-1.612-.213-2.4a26.654,26.654,0,0,0-.251-2.658c-.138-.852-.359-1.7-.573-2.529a25.576,25.576,0,0,1-.609-2.773,22.386,22.386,0,0,1-.152-2.907c-.006-.713-.013-1.449-.071-2.166-.182-2.253-.393-4.543-.6-6.758-.178-1.933-.36-3.913-.523-5.864-.327-3.876-2.009-6.1-4.614-6.1a5.049,5.049,0,0,0-.769.061c-.243.038-.507.067-.777.1-1.1.122-2.338.259-2.711,1.03-.278.573-.055,1.423.679,2.6.12.193-.059.555-.249.937a4.084,4.084,0,0,0-.289.677q-.538,2.036-1.066,4.074c-.694,2.669-1.412,5.428-2.164,8.139a25.19,25.19,0,0,1-.955,2.639c-.211.521-.426,1.054-.617,1.586-.8,2.253-1.6,4.535-2.368,6.742-1.7,4.874-3.457,9.913-5.347,14.813a83.137,83.137,0,0,1-5.537,11.613c-1.632,2.822-3.414,5.615-5.138,8.316s-3.519,5.515-5.151,8.339a4.585,4.585,0,0,0-.283,2.527,6.291,6.291,0,0,1-.131,2.286,62.012,62.012,0,0,1-4.133,10.258,8.215,8.215,0,0,1-2.984,2.543c-.69.439-1.471.936-2.269,1.534-.367.853-.725,1.761-1.1,2.722a43.817,43.817,0,0,1-5.485,10.7c-2,2.677-4.338,3.61-6.81,4.6-.663.265-1.348.539-2.019.847a1.293,1.293,0,0,1-.538.1,8.223,8.223,0,0,1-3.718-1.582c-.6-.379-1.234-.74-1.849-1.089-2.669-1.516-5.429-3.083-6.1-6.545-.71-3.692-1.314-7.469-1.9-11.123q-.374-2.34-.756-4.679a4.254,4.254,0,0,1-.036-.581,4.988,4.988,0,0,0-.026-.508c-.128-1.163-.278-2.345-.423-3.488-.312-2.46-.633-4.989-.759-7.488-.083-1.694-.017-3.425.048-5.1a54.431,54.431,0,0,0,.026-5.5c-.163-2.613-.458-5.264-.742-7.827-.289-2.6-.587-5.281-.749-7.925s-.112-5.334-.064-7.94c.026-1.4.052-2.851.046-4.279v-.6a41.061,41.061,0,0,0-.215-5.046c-.235-1.834-.545-3.687-.846-5.48-.225-1.341-.455-2.714-.652-4.067a4.005,4.005,0,0,1,.167-2.172c.933-1.963.573-3.486-.309-5.308a47.286,47.286,0,0,1-3.471-10.741,5.142,5.142,0,0,0-4.8-4.3,3.212,3.212,0,0,0-.948.136,14.6,14.6,0,0,1-3.223.459c-2.9.2-5.9.415-6.88,4.379a1.312,1.312,0,0,1-.755.749c-4.542,1.594-5.975,5.4-7.36,9.09a27.154,27.154,0,0,1-2.211,4.886c-.417.663-.8,1.337-1.179,1.988a18.573,18.573,0,0,1-4.482,5.813,4.871,4.871,0,0,0-1.243,2.206,6.114,6.114,0,0,1-.966,1.94,16.245,16.245,0,0,1-1.238,1.257c-.957.907-1.946,1.844-1.819,2.585.683,4-.851,7.385-2.335,10.66a38.561,38.561,0,0,0-1.829,4.541c-1.287,4.188-2.921,8.347-4.5,12.369q-.6,1.532-1.2,3.062a8.426,8.426,0,0,1-1.211,1.931c-.241.321-.487.648-.732,1.008l.566.668,1.71,2.017c-.385.53-.75,1.13-1.1,1.71a10.525,10.525,0,0,1-2.857,3.5c-2.507,1.638-2.515,3.536-2.264,5.847a11.518,11.518,0,0,1-.476,3.991c-1.239,4.755-2.33,8.675-3.434,12.337a10.368,10.368,0,0,1-.949,2.02,12.7,12.7,0,0,0-.833,1.674c-.192.5-.411,1.009-.622,1.5a12.844,12.844,0,0,0-1.358,4.685c-.05,3.951-2.7,5.164-5.266,6.336a17.282,17.282,0,0,0-2.759,1.466,3.237,3.237,0,0,1-1.9.542c-2.5,0-5.939-2.2-6.248-4.669a6.013,6.013,0,0,0-1.033-3.056c-2.021-2.469-2.579-5.448-3.118-8.33a35.861,35.861,0,0,0-.947-4.143,10.354,10.354,0,0,1-.014-4.437,15.732,15.732,0,0,0,.212-3.4c-.36-4.011-.889-8.073-1.4-12-.231-1.774-.462-3.547-.679-5.322a2.273,2.273,0,0,1,.068-1.077c1.33-3.35.742-6.717.173-9.973-.227-1.3-.461-2.642-.569-3.96-.245-2.982-.649-6.293-2.363-7.827a3.448,3.448,0,0,1-1.433-2.246c-.015-.783.595-1.37,1.24-1.991a9.307,9.307,0,0,0,.8-.837c-.534-1.037-1.017-2.128-1.483-3.184a22.8,22.8,0,0,0-3.93-6.759c-2.156-2.24-6.81-2.522-8.185-2.555-.237-.005-.469-.008-.7-.01a13.027,13.027,0,0,1-3.322-.33,4.856,4.856,0,0,0-1.232-.162,8.829,8.829,0,0,0-4.526,1.759c-.387.237-.785.481-1.184.7a10.818,10.818,0,0,1-3.175.978,11.816,11.816,0,0,0-3.012.884c-.736.372-1.511.678-2.26.973a13.873,13.873,0,0,0-4.67,2.61c-2.483,2.3-3.964,4.049-2,7.22.227.372-.085,1.3-.408,1.7-3.1,3.875-3.379,8.464-3.644,12.9-.084,1.406-.171,2.859-.347,4.268a22.09,22.09,0,0,0-.066,3.3c.017.646.035,1.31.035,2.062a18.345,18.345,0,0,1-.931,1.863c-1.076,1.969-2.294,4.2-1.519,7.418a10.766,10.766,0,0,1-3.551,10.827c-.735.641-1.831,1.927-1.64,2.648.7,2.581-.692,4.176-2.04,5.718A10.37,10.37,0,0,0,84,213.752a2.693,2.693,0,0,1-1.906,1.31.677.677,0,0,1-.124-.011,7.18,7.18,0,0,0-1.286-.126c-3.356,0-3.965,2.978-4.455,5.371l-.081.391-.01.049c-.726,3.444-1.205,5.72-5.706,6.286-1.77.221-3.372,2.084-4.92,3.886-.566.658-1.147,1.335-1.718,1.905-.836.836-1.617,1.781-2.373,2.7a19.152,19.152,0,0,1-4.693,4.537,18.247,18.247,0,0,1-8.847,2.344c-.289,0-.579-.008-.861-.024s-.566-.025-.821-.025c-2.369,0-3.443.739-3.708,2.549-.641-.125-1.265-.22-1.867-.312a17.85,17.85,0,0,1-3.546-.783,52.014,52.014,0,0,1-8.854-3.929,25.013,25.013,0,0,1-4.1-3.375c-.693-.657-1.407-1.334-2.144-1.952-.13-.11-.267-.23-.407-.354-.676-.6-1.443-1.273-2.08-1.273a.852.852,0,0,0-.105.007,7.567,7.567,0,0,1-.955.062c-2.891,0-4.755-1.814-6.559-3.569a12.284,12.284,0,0,0-4.483-3.219c-.182-.058-.3-.6-.309-.965-.107-5.259-1.137-9.249-3.341-12.937-.6-1-.2-2.523.228-4.139a15.423,15.423,0,0,0,.546-2.71,21.2,21.2,0,0,0-.155-3.506c-.056-.564-.114-1.145-.148-1.716-.051-.844-.1-1.689-.143-2.534l0-.047c-.108-1.971-.219-4.009-.392-6.012A5.149,5.149,0,0,0,3.3,190.3a5.763,5.763,0,0,1-.357-1.218c-.072-.522-.2-1.1-.337-1.7-.346-1.542-.7-3.136-.078-3.811,2.525-2.69,1.957-5.29,1.356-8.043-.161-.735-.326-1.495-.428-2.252a22.7,22.7,0,0,1,.09-4.969c.053-.585.108-1.187.145-1.775a6.372,6.372,0,0,1,.2-1.1,3.859,3.859,0,0,0,.169-1.588c-.859-4.64.185-9,3.285-13.729a5.809,5.809,0,0,0,.389-3.413c-.034-.5-.068-1.006-.061-1.475l.019-1.172c.087-5.06.176-10.292-1.164-15.453a17.76,17.76,0,0,1-.114-5.952,29.5,29.5,0,0,0,.182-3.941c-.1-2.348-.475-4.977-3.694-6.447-2.362-1.078-2.43-3.4-2.5-5.643-.017-.563-.034-1.146-.09-1.689a42.311,42.311,0,0,1-.278-6.713c.063-1.007.893-2.712,1.466-2.759,4.774-.42,4.521-3.31,4.227-6.656L5.7,88.359c-.042-.49-.087-.98-.132-1.47-.412-4.484-.838-9.112,1.524-13.533.789-1.471.439-3.806.006-5.506-.634-2.471-1.442-4.94-2.223-7.328-.5-1.538-1.019-3.114-1.483-4.674C2.169,51.762,4.98,44.994,8.86,42.68c.707.432,1.338.874,1.949,1.3A11.7,11.7,0,0,0,14.3,45.91,11.461,11.461,0,0,1,21.133,51.6a10.422,10.422,0,0,1,.911,8.136c-1.283,3.827-.415,7.453.424,10.96.168.7.343,1.431.5,2.157.353.043.712.087,1.064.124.464-1.3,1.065-2.634,1.647-3.92,1.3-2.872,2.642-5.842,2.536-8.714-.152-4.115,1.3-7.616,2.714-11a40.809,40.809,0,0,0,2.187-6.173,11.116,11.116,0,0,0,.176-2.829,17.252,17.252,0,0,1,.028-1.917c.233-2.558.513-5.149.761-7.435.1-.951.2-1.858.291-2.712,1.007-1.387,1.932-2.668,2.907-4.018l1.356-1.878a2.378,2.378,0,0,0,.345.025c1.69,0,3.643-1.844,3.726-4.313a6.247,6.247,0,0,1,1.417-4.059c2.224-1.987,2.478-4.523,2.555-7.165.108-3.652,2.314-5.912,5.9-6.045A13.923,13.923,0,0,0,55.085.41,12.55,12.55,0,0,1,57.8,0l.161,0a8.8,8.8,0,0,1,3.614,1.35l.247.135a8.086,8.086,0,0,1,1.347,1.007,4.417,4.417,0,0,0,2.013,1.22c2.564.405,4.344.867,5.68,3.5.455.895,1.878,1.268,3.383,1.663a15.067,15.067,0,0,1,2.383.763,6.718,6.718,0,0,1,4.145,5.859,5.687,5.687,0,0,0,1.552,2.637c.4.479.8.973,1.189,1.533.121.465.246.985.38,1.542.355,1.473.758,3.142,1.3,4.794l.034.1c.6,1.816,1.081,3.25-.764,4.865-2.743,2.406-1.7,5.774-.483,8.439,1.174,2.566.208,4.4-.727,6.167a11.3,11.3,0,0,0-1.117,2.631q-.136.574-.268,1.148c-.228.984-.464,2-.728,3a11.784,11.784,0,0,1-.786,2.19c-.414.825-.788,1.712-1.149,2.569a17.182,17.182,0,0,1-3.2,5.573,17.559,17.559,0,0,0-3.432,5.757c-.932,2.156-1.9,4.384-3.782,6.017-.34.3-.706.571-1.059.839A12.376,12.376,0,0,0,66.1,76.69l-.067.073a39.609,39.609,0,0,0-3.9,4.685c-.281.419-.538.808-.776,1.167-1.843,2.781-2.532,3.821-4.075,3.821a16.571,16.571,0,0,1-3.772-.808l-.484-.134-3.6,5.027-4.407,6.147c1.02.355,1.947.653,2.844.941a35.28,35.28,0,0,1,4.877,1.819,27.313,27.313,0,0,1,3.3,2.041,28.723,28.723,0,0,0,3.141,1.962c.421.215.843.434,1.267.655A28.435,28.435,0,0,0,68.1,107.18c2.667.5,4.465,2.077,6.2,3.606.5.443,1.025.9,1.555,1.319a37.6,37.6,0,0,1,4.785,4.856,46.785,46.785,0,0,0,3.846,4.066c3.424,3.074,5.281,6.881,7.247,10.911l.258.529c.232.473,1.387.8,2.279.8a2.583,2.583,0,0,0,.561-.054c1.75-.4,3.521-.954,5.234-1.489,3.3-1.029,6.705-2.094,10.049-2.094h.364a55.705,55.705,0,0,0,7.829-.731,63.791,63.791,0,0,1,6.58-.7,14.378,14.378,0,0,0,2.091-.3,12.488,12.488,0,0,1,2.2-.294,2.322,2.322,0,0,1,1.3.314c2.392,1.569,5.021,2.071,7.8,2.6,3.126.6,6.358,1.216,9.458,3.429.388.661.844,1.415,1.344,2.24,1.359,2.245,3.038,5.019,4.528,7.876a27.436,27.436,0,0,1,1.856,5.115c.152.525.3,1.039.458,1.548.254.819.449,1.671.638,2.495.138.6.28,1.223.445,1.83a3.119,3.119,0,0,0,.311.661,1.7,1.7,0,0,1,.326.929c-.091,1-.264,2.026-.431,3.016a20.631,20.631,0,0,0-.435,5.559,49.613,49.613,0,0,0,2.735,11.013,2.46,2.46,0,0,0,2.416,1.591,2.647,2.647,0,0,0,2.491-1.523l.133-.3c.867-1.956,1.85-4.172,1.556-6.084-.52-3.371-.279-6.179,2.586-8.928a4.013,4.013,0,0,0,.761-2.507,7.408,7.408,0,0,1,.415-2.115,17.456,17.456,0,0,1,1.539-2.65,21.2,21.2,0,0,0,1.331-2.2,6.018,6.018,0,0,0,.466-2.139c.025-.26.05-.517.085-.769a1.471,1.471,0,0,0-.037-.462.848.848,0,0,1,.006-.547c.543-.951,1.114-1.907,1.667-2.832.644-1.078,1.3-2.174,1.916-3.268a2.166,2.166,0,0,0,.291-1.609c-.93-2.427.347-3.782,1.826-5.35.145-.154.276-.293.407-.434a32.632,32.632,0,0,0,3.6-5.131c.585-.953,1.185-1.929,1.88-2.987,1.724-.555,3.647-3.4,4.475-6.628.7-2.722.422-5-.763-6.26,1.233-.159,1.414-.186,1.426-.193h-.013l-.04,0c.429-.827.779-1.652,1.119-2.448a13.91,13.91,0,0,1,2.4-4.248,55.833,55.833,0,0,1,10.648-9.169,7.49,7.49,0,0,1,3.649-1.191,3.755,3.755,0,0,1,3.33,1.965,3.735,3.735,0,0,0,2.637,1.27,1.215,1.215,0,0,0,.438-.07,10.8,10.8,0,0,1,3.96-.824,8.818,8.818,0,0,1,7.22,4.153c1.16.074,2.184.123,3.175.17,1.936.092,3.6.172,5.22.4.5.069,1.014.128,1.53.187a16.047,16.047,0,0,1,6.043,1.478c4.838,2.741,8.7,10.993,6.509,18.45-1.63,5.558-1.04,11.432-.359,16.5a2.006,2.006,0,0,1-.343,1.114,4.416,4.416,0,0,0-.307.686,6.378,6.378,0,0,1-.318.759c-.275.585-.559,1.19-.312,1.654.2.37.711.615,1.571.749.355.056.652,1.391.718,2.122.507,5.592.952,11.043,1.324,16.2a3.473,3.473,0,0,1-.439,2.3,4.356,4.356,0,0,0-1.461,3.406,4.208,4.208,0,0,0,2.29,2.768q-.521,1.125-1.043,2.228l-.021.045c-.929,1.976-1.806,3.841-2.63,5.77a2.273,2.273,0,0,0,.2,1.466c.041.073.08.114.114.118,2.829.364,3.149,2.508,3.431,4.4.056.373.108.722.176,1.057.314,1.51.281,4.067-.773,5.024-2.151,1.947-2.31,3.654-.588,6.3.47-.583.938-1.148,1.4-1.706,1-1.2,1.937-2.336,2.812-3.547.937-1.295,1.834-2.657,2.7-3.974a54.84,54.84,0,0,1,5.59-7.521c2.509-2.674,3.854-5.86,5.156-8.941.457-1.081.929-2.2,1.446-3.284.746-1.564,1.356-3.224,1.947-4.83,1.347-3.665,2.741-7.455,5.849-10.421.929-.889,1.071-2.622,1.209-4.3.056-.685.114-1.394.227-2.026a4.125,4.125,0,0,0,.009-1.014,2.732,2.732,0,0,1,.1-1.275c.664-1.575,1.383-3.159,2.078-4.691,1.011-2.227,2.052-4.52,2.946-6.83a66.963,66.963,0,0,0,2-6.467c.324-1.183.658-2.4,1.055-3.76-.277-.136-.6-.31-.969-.512a22.5,22.5,0,0,0-3.529-1.647c-3.759-1.261-5.673-3.939-6.026-8.427-.02-.246-.035-.5-.05-.758a6.9,6.9,0,0,0-.816-3.567c-3.077-4.235-2.964-4.919,1.349-8.13a3.856,3.856,0,0,0,.953-1.273c.1-.175.185-.338.272-.466.355.046.71.1,1.066.156a21.094,21.094,0,0,0,2.256.265c.869.037,1.721.057,2.534.057a35.472,35.472,0,0,0,13.36-2.3,4.968,4.968,0,0,0,1.976-2.625,1.786,1.786,0,0,0,.122-1.3c-1.376-2.505-.681-4.622.054-6.864.146-.444.3-.9.429-1.365a8.441,8.441,0,0,0,.232-1.387,9.046,9.046,0,0,1,.208-1.3c.069-.264.128-.546.188-.83a4.379,4.379,0,0,1,.957-2.362,11.145,11.145,0,0,0,3.706-10.27l-.033-.264a5.256,5.256,0,0,1,.026-2.229,24.02,24.02,0,0,0,.594-12.127c-.195-1.168.87-2.564,1.81-3.8a15.927,15.927,0,0,0,1.086-1.537c8.513,1.966,18.137,4.194,20.918,14.818-.221.5-.447,1-.673,1.5-2.268,5-4.614,10.176-1.87,16.273a8.588,8.588,0,0,1,.253,4.231c-.066.682-.135,1.387-.135,2.049-1.932.036-3.248.5-3.921,1.376a3.487,3.487,0,0,0-.348,3.06,2.162,2.162,0,0,0,1.3,1.435l.7.106a24.8,24.8,0,0,0,3.7.381,9.35,9.35,0,0,0,1.435-.1c2.553-.392,5.136-.909,7.633-1.409a95.936,95.936,0,0,1,13.582-2.049c4.541-.246,4.884-2.715,5.247-5.328.073-.523.148-1.063.259-1.576.623-2.907,1.072-5.9,1.506-8.795.281-1.873.571-3.809.907-5.714.239-1.341.564-2.691.879-4,.307-1.273.623-2.582.86-3.885a2.11,2.11,0,0,0-.382-1.231,5.062,5.062,0,0,1-.335-.724c-.068-.2-.153-.409-.239-.618A3.157,3.157,0,0,1,358.2,56.4c.1-.537.195-1.083.287-1.63a20.359,20.359,0,0,1,1.662-6.03,37.757,37.757,0,0,1,4.855-6.639c.347-.409.687-.81,1.023-1.212a.336.336,0,0,1,.252-.069,3.892,3.892,0,0,1,2.062.805c1.214,1.184,2.4,2.441,3.552,3.657a66.806,66.806,0,0,0,6.811,6.558,5.525,5.525,0,0,1,2.475,4.64,33.09,33.09,0,0,1-.562,4.636,38.024,38.024,0,0,0-.539,4.063c-.207,3.452-.2,6.978-.184,10.388l0,1.733a19.669,19.669,0,0,0,.449,3.512l.009.046c.044.236.079.5.115.76.121.9.247,1.826.751,2.154a3,3,0,0,0,1.647.377,10.2,10.2,0,0,0,1.693-.167c1.082-.177,2.175-.4,3.232-.621a35.675,35.675,0,0,1,7.146-.979,14.772,14.772,0,0,1,3.988.518,2.131,2.131,0,0,0,.535.092.814.814,0,0,0,.176-.018q2.981-.643,5.959-1.308c4.14-.917,8.418-1.865,12.645-2.689,1.788-.347,3.63-.57,5.411-.786,1.907-.231,3.876-.47,5.781-.86a18.824,18.824,0,0,0,3.445-1.184,20.159,20.159,0,0,1,3.219-1.136c4.793-1.093,9.692-2.083,14.429-3.039q2.47-.5,4.93-1a1.722,1.722,0,0,1,.386-.036c.109,0,.22.006.33.011h.04c.1,0,.187.006.276.006a1.1,1.1,0,0,0,.657-.15c2.857-2.2,6.24-2.575,9.511-2.941a34.515,34.515,0,0,0,5.078-.826.54.54,0,0,1,.154-.019,1.8,1.8,0,0,1,.186.013c.061.005.122.011.18.011a.443.443,0,0,0,.211-.041c1.254-.7,2.6-1.35,3.9-1.978,3.04-1.467,6.184-2.985,8.419-5.285,2.118-2.176,4.111-3.146,6.462-3.146a12.191,12.191,0,0,1,3.252.5c.547,1.063,1.131,2.131,1.7,3.163a57.283,57.283,0,0,1,3.761,7.776,8.432,8.432,0,0,1-.377,6.5,42.849,42.849,0,0,1-7.387,8.328,7.426,7.426,0,0,1-3.146,1.375c-.477.129-.964.262-1.414.419-1.314.46-2.622.969-3.887,1.462a54.77,54.77,0,0,1-9.217,2.962c-1.025.2-2.061.434-3.062.655a46.966,46.966,0,0,1-10.081,1.469l-.29,0h-.126a20.346,20.346,0,0,0-7.592,1.957A24.63,24.63,0,0,1,447.3,95c-.462.058-.937.094-1.4.13a12.5,12.5,0,0,0-3.194.526,96.053,96.053,0,0,1-18.988,4.387c-3.271.465-6.617.786-9.853,1.1-1.526.146-3.045.291-4.562.451-1.005.108-2.013.2-3.02.3-2.391.224-4.839.454-7.219.854-3.972.671-7.99,1.5-11.875,2.3l-.068.014q-1.524.314-3.048.625c-3.105.631-5.13,4.18-4.609,8.08.293,2.194.41,4.451.524,6.633.043.833.086,1.657.138,2.48l.011.16c.034.457.08,1.082-.141,1.226a4.367,4.367,0,0,0-2.178,2.527c-.26,1.208.476,2.338,1.254,3.535a9.876,9.876,0,0,1,1.215,2.266,12.666,12.666,0,0,1,.139,4.992c-.058.58-.117,1.173-.151,1.752,0,.574-.018,1.158-.035,1.722a25.553,25.553,0,0,0,.072,3.784c.053.462.114.922.174,1.381.361,2.744.7,5.333-.44,8.054-.412.974.072,2.545.613,3.595a14.994,14.994,0,0,1,1.225,10.765,22.052,22.052,0,0,0-.229,7.028c.408,4.271.569,8.438-1.918,12.461-.8,1.273-.744,3.181-.7,4.864.008.287.015.571.019.846a8.109,8.109,0,0,0,.413,2.048,4.632,4.632,0,0,1,.28,2.679c-.8,2.346.295,3.991,1.358,5.582a8.447,8.447,0,0,1,1.544,3.2c.521-.137,1.078-.238,1.616-.335a8.4,8.4,0,0,0,3.377-1.1,35.034,35.034,0,0,0,4.364-3.937c.614-.619,1.248-1.26,1.891-1.866l.069-.066a3.466,3.466,0,0,1,1.076-.806,8.952,8.952,0,0,0,5.28-4.853c1.194-2.821.973-6.465-.621-10.262a5.876,5.876,0,0,1-.39-1.367c-.211-1.465-.471-2.951-.724-4.389a59.6,59.6,0,0,1-1.207-10.46,42.185,42.185,0,0,1,1.416-9.094c.3-1.315.617-2.673.867-4.01.189-1.014.36-2.048.525-3.047.355-2.148.722-4.367,1.287-6.493,1.265-4.739,2.686-9.794,4.5-14.657a42.62,42.62,0,0,1,3.134-6.191c.507-.88,1.031-1.789,1.518-2.7a3.668,3.668,0,0,1,.393-.552l.034-.042c.963-1.157,1.905-2.369,2.816-3.541a58.92,58.92,0,0,1,6.774-7.738c3.643-3.277,8.016-6.868,12.826-8.649l.793-.295c2.92-1.09,5.94-2.217,9.14-2.217a11.884,11.884,0,0,1,5.077,1.1,4.385,4.385,0,0,0,1.817.3c.232,0,.468-.007.7-.013s.441-.012.658-.012a6.127,6.127,0,0,1,1.258.1c.489.135,1,.248,1.491.357a12.749,12.749,0,0,1,3.236,1.023,44.553,44.553,0,0,1,4.936,3.242c.4.286.792.572,1.189.854a5.939,5.939,0,0,1,.9.871c.462.515.9,1,1.376,1.023,2.529.124,4.081,1.3,6.045,2.778l.278.21a12.2,12.2,0,0,1,4.263,6.255,38.517,38.517,0,0,0,1.6,3.569,31.167,31.167,0,0,1,1.887,4.406,54.226,54.226,0,0,1,1.54,7.226c.113.684.227,1.367.347,2.049a6.821,6.821,0,0,1,.025,1.837c-1.143.947-2.245,1.845-3.315,2.716-2.2,1.792-4.278,3.485-6.275,5.253l-.2.181c-5.215,4.638-10.608,9.435-15.691,14.377a6.258,6.258,0,0,0-1.288,2.5,6.819,6.819,0,0,1-1.211,2.442,73.735,73.735,0,0,1-8.68,8.043,14.15,14.15,0,0,1-3.918,1.9c-.627.229-1.275.466-1.886.732.184.126.37.251.557.375l.346.231c-.268.582-.517,1.19-.757,1.777a20.034,20.034,0,0,1-1.879,3.8c-1.961,2.841-4.069,5.649-6.107,8.365-1,1.332-1.984,2.644-2.957,3.965a2.1,2.1,0,0,0-.278.657c-.031.106-.062.211-.1.308a5.138,5.138,0,0,0,3.8,1.349,10.287,10.287,0,0,0,6.018-2.048c2.042-1.554,4.153-3.089,6.195-4.573,3.241-2.356,6.592-4.792,9.743-7.362a45.66,45.66,0,0,0,7.746-8.185c.561-.756,1.117-1.52,1.672-2.286,3.445-4.745,7.007-9.65,12.249-12.576,3.376-1.892,4.232-3.549,3.663-7.09-.224-1.421.726-3.119,1.564-4.617.116-.208.222-.4.323-.58a61.222,61.222,0,0,1,4.653-7.356c.425-.568.838-1.141,1.252-1.714a34.391,34.391,0,0,1,5.164-6.088c2.425-2.117,2.033-6.053,1.584-8.21-.1-.467-.207-.943-.319-1.424-.489-2.105-.99-4.264-.473-6.1.931-3.3,4.218-3.756,7.63-3.756h.19a10.111,10.111,0,0,1,3.176.748,10.183,10.183,0,0,0,3.172.749,4.363,4.363,0,0,1,3.6,1.935,12.556,12.556,0,0,0,1.045,1.078c3.555,3.162,3.467,6.565,3.366,10.506a19.435,19.435,0,0,0,.237,3.024c.283,2.163.576,4.4-.8,6.609-.156.252.2.744.607,1.315a4.84,4.84,0,0,1,.909,1.661c.245,1.349.561,2.732.867,4.07.827,3.615,1.682,7.353,1.249,10.871a26.469,26.469,0,0,0,.94,9.162,29.76,29.76,0,0,1,1.027,7.605,3.419,3.419,0,0,0,.888,1.888,7.772,7.772,0,0,1,.727,1.144c.264.577.669,1.589.408,1.893-2.155,2.5-.855,4.455.4,6.345a14.883,14.883,0,0,1,.979,1.612c.518,1.052,1.165,1.586,1.925,1.586a3.5,3.5,0,0,0,2.548-1.932c.645-1.078,1.376-2.119,2.082-3.125a29.231,29.231,0,0,0,3.523-5.995,36.581,36.581,0,0,1,3.973-6.883c.841-1.242,1.71-2.523,2.468-3.827.977-1.678,1.891-3.422,2.775-5.11.945-1.8,1.921-3.666,2.972-5.445.891-1.512,1.929-2.97,2.933-4.38.635-.892,1.291-1.812,1.9-2.741a3.152,3.152,0,0,0,.712-1.967c-.558-4.33,1.368-7.25,6.243-9.466a3.279,3.279,0,0,0,1.188-2.722c-.269-2.975-.284-5.465,2.1-8.167,2.279-2.573,4.293-6.686.947-11.669.127,0,.253,0,.378,0h.2c.267,0,.535,0,.8-.006l.693-.008c.653-.009,1.29-.018,1.92-.018,3.385,0,7.19.217,9.495,2.808a16.455,16.455,0,0,0,2.58,2.178c2.334,1.719,4.746,3.5,4.535,7.53-.117,2.244,1.189,4.594,2.453,6.866a35.224,35.224,0,0,1,1.7,3.324c.058.139.123.286.189.437.4.912.855,1.945.553,2.564a3.751,3.751,0,0,0-.387,3.09,4.063,4.063,0,0,0,2.646,2.045c-1.2,3.591.689,7.864,3.174,10.233a8.541,8.541,0,0,1,2.58,5.977c-.264,3.244.547,5.454,2.63,7.165,1.9,1.564,2.7,2.9,1.51,5.457-.486,1.054.291,3.08,1.219,4.517a11.377,11.377,0,0,0,2.507,2.5c1.71,1.385,3.477,2.817,3.445,5.729-.013,1.168,1.031,2.368,2.041,3.529.4.464.821.943,1.157,1.408.473.649.94,1.3,1.408,1.959,1.414,1.98,2.872,4.023,4.476,5.893,1.685,1.968,3.469,3.912,5.194,5.792,2.193,2.39,4.455,4.855,6.537,7.393,3.827,4.678,8.79,8.1,13.59,11.4,2.068,1.424,4.205,2.9,6.221,4.448a44.774,44.774,0,0,0,11.514,5.952,9.263,9.263,0,0,0,3.209.5,17.8,17.8,0,0,0,4.036-.511,137.589,137.589,0,0,0,14.447-4.337,74.118,74.118,0,0,0,8.137-3.671q.761-.381,1.521-.759a3.285,3.285,0,0,0,1.05-1.038,6.168,6.168,0,0,1,.6-.719c.172-.166.342-.333.511-.5,1.586-1.561,3.071-3.022,5.544-3.022a6.741,6.741,0,0,1,.807.05.721.721,0,0,0,.082,0c.7,0,1.582-1.005,2.356-1.892.219-.25.428-.49.625-.7.754-.792,1.447-1.661,2.117-2.5.335-.42.658-.825.989-1.223,1.123-1.359,2.24-2.759,3.32-4.113,2.606-3.265,5.3-6.64,8.25-9.666a27.494,27.494,0,0,1,8.656-5.636c5.75-2.5,10.419-6.569,14.694-12.8,1.986,2.642,1.252,5.224.408,7.437l-.416,1.1a83.106,83.106,0,0,1-5.61,12.614q-.913,1.568-1.817,3.148c-1.768,3.075-3.6,6.254-5.539,9.294a2.223,2.223,0,0,1-.3.341c-.181.183-.352.356-.329.513.5,3.786-1.829,6.279-4.079,8.69l-.388.417a16.341,16.341,0,0,1-2.982,2.338c-.281.187-.561.374-.835.563-1.1.758-2.243,1.509-3.345,2.234-2.055,1.353-4.179,2.752-6.165,4.262-1.552,1.186-3.05,2.495-4.5,3.761-1.487,1.3-3.022,2.641-4.615,3.849a28.846,28.846,0,0,1-4.193,2.474c-.67.346-1.361.7-2.025,1.078q-1.463.825-2.921,1.66c-2.385,1.361-4.847,2.764-7.312,4.069a10.317,10.317,0,0,1-3.595,1.108c-1.227.137-2.455.289-3.682.442A96,96,0,0,1,664.1,251.22ZM78.387,161.629a7.181,7.181,0,0,0-3.035.894c-1.213.653-2.39,1.432-3.528,2.186a29.2,29.2,0,0,1-5.474,3.085q-.459.176-.918.349c-3.881,1.467-7.547,2.853-9.5,6.859a4.87,4.87,0,0,1-1.424,1.465c-.762.6-1.549,1.222-1.6,2.072a2.988,2.988,0,0,0,1.125,2.131c.042.042-.186.415-.359.588-.73.751-1.551,1.449-2.344,2.124-2.014,1.713-4.1,3.483-4.894,6.278-.009.031-.072.039-.145.047a.4.4,0,0,0-.189.052c-.378.345-.767.68-1.156,1.014a22.173,22.173,0,0,0-2.612,2.506,27.3,27.3,0,0,0-2.945,4.548c-.386.719-.82,1.448-1.24,2.154a18.891,18.891,0,0,0-2.757,6.162,43,43,0,0,0-.265,8.695c.045,1.232.092,2.506.092,3.754.358,4.5,1.186,6.017,3.281,6.017a13.458,13.458,0,0,0,4.509-1.185c5.141-2,8.442-4.242,11.038-7.492a69.12,69.12,0,0,1,4.891-5.319,49.125,49.125,0,0,0,6.437-7.463,77.211,77.211,0,0,0,5.134-9.937c1.261-2.761,2.565-5.616,4.109-8.271,3.683-6.344,4.79-13.37,5.537-19.458.152-1.219-.123-3.31-.885-3.681A2.048,2.048,0,0,0,78.387,161.629ZM33.157,109.3v.007c-1.847,0-2.478,1.253-4.164,4.6a1.886,1.886,0,0,1-.43.5c-3.924,3.659-4.717,7.83-2.422,12.753a11.31,11.31,0,0,1,.513,5.513,66.689,66.689,0,0,1-1.131,6.992c-.1.516-.2,1-.292,1.484-.284,1.5-.628,3.006-.961,4.458-.147.641-.292,1.277-.432,1.908.257.168.512.332.717.464.251.161.426.274.446.291v17.466a1.967,1.967,0,0,1-.164,1.36,4.47,4.47,0,0,0-.256.948,21.748,21.748,0,0,0-.1,2.6,11.306,11.306,0,0,1-.54,4.347c-.6,1.425-.694,2.433-.294,3.174s1.315,1.224,2.942,1.522v9.25c.47.21.941.421,1.417.631.331-.532.659-1.079.976-1.608.72-1.2,1.464-2.443,2.3-3.589l.175-.241a40.548,40.548,0,0,1,4.564-5.574,4.8,4.8,0,0,1,1.941-.892,3.635,3.635,0,0,0,1.982-1.02c.35-.488.693-.977,1.035-1.464a35.957,35.957,0,0,1,5.764-6.9,108.972,108.972,0,0,0,11.545-11.978c1.887-2.227,4.458-3.079,6.943-3.9a18,18,0,0,0,5.351-2.451c1.132-.853,3.171-2.863,2.871-3.5-.92-1.977.138-2.661,1.16-3.323a4.291,4.291,0,0,0,1.179-.971c.261-.361.582-.741.892-1.108.848-1,1.725-2.038,1.644-2.976a10.5,10.5,0,0,0-1.12-3.356,10.155,10.155,0,0,1-1.12-3.418c-.311-4.626-3.491-6.8-6.567-8.9a18.137,18.137,0,0,1-5.077-4.477,3.04,3.04,0,0,0-1.694-.807c-.7-.19-1.37-.369-1.542-.783-1.337-3.227-4.074-3.584-6.721-3.93-.645-.084-1.254-.164-1.848-.284a63.022,63.022,0,0,0-6.947-.866,56.225,56.225,0,0,1-7.717-1.033l-.96-.223a19.616,19.616,0,0,0-3.859-.692Zm300.98,61.27v.01l-.244,3.376c-.181,2.494-.352,4.85-.5,7.163-.012.178-.025.357-.038.536a15.324,15.324,0,0,0-.036,2.811,1.682,1.682,0,0,0,1.114,1.145,1.036,1.036,0,0,0,.21.019c.492,0,1.2-.266,1.331-.576.207-.51.465-1.034.738-1.589.756-1.535,1.534-3.116,1.155-4.32-1.158-3.675,0-6.929,1.117-10.077a30.285,30.285,0,0,0,1.358-4.562c.344-1.867.858-3.732,1.355-5.535,1.052-3.814,2.139-7.757,1.677-11.949a14.865,14.865,0,0,1,.5-6.28,20.29,20.29,0,0,1,1.93-3.749,23.626,23.626,0,0,0,1.752-3.267,20.04,20.04,0,0,0,1.194-5.983c.122-1.638.157-3.31.191-4.926.045-2.144.091-4.358.341-6.514.191-1.639.192-2.872-.424-3.564a2.941,2.941,0,0,0-2.3-.7c-.238,0-.5.01-.781.029-3,.2-6.047.519-8.991.826-2.572.268-5.231.546-7.856.745-1.465.112-2.342.285-2.782.876-.392.527-.429,1.4-.12,2.824.082.381.169.764.256,1.148.833,3.68,1.689,7.463-.782,11.269-.316.485-1.3,2.187-.7,3.7a3.778,3.778,0,0,0,2.9,2.04c.711.173,1.422,3.23,1.519,4.422.018.222.01.352-.022.366-2.885,1.2-2.276,2.726-1.571,4.488a13.751,13.751,0,0,1,.475,1.316,9.029,9.029,0,0,1,.125,3.1,10.992,10.992,0,0,0,.023,2.705,7.753,7.753,0,0,0,1.139,2.516,13.358,13.358,0,0,1,.854,1.574c.216.5.469,1.023.713,1.524a10.664,10.664,0,0,1,1.452,4.508,11.821,11.821,0,0,1-1.369,4.5c-.283.627-.573,1.27-.809,1.9-.423,1.139-.484,1.9-.186,2.329a1.306,1.306,0,0,0,1.155.441,10.571,10.571,0,0,0,2.931-.614Zm87.93-24.634a1.862,1.862,0,0,0-1.422.517,3.319,3.319,0,0,0-.608,2.481,10.96,10.96,0,0,1-.943,4.118c-.811,2.207-1.65,4.489-.01,6.956.071.106-.067.316-.225.559a1.954,1.954,0,0,0-.337.684c-.628,4.217-1.247,8.51-1.845,12.661L416,178.578c.421.26.848.52,1.268.773.228-.207.476-.407.716-.6a7,7,0,0,0,1.462-1.429c.949-1.415,1.855-2.9,2.731-4.334A62.789,62.789,0,0,1,427.635,165a79.887,79.887,0,0,1,6.839-6.847c1.738-1.605,3.528-3.258,5.17-4.989a42.217,42.217,0,0,0,3.483-4.427,48.656,48.656,0,0,1,3.013-3.913A118.071,118.071,0,0,1,456,134.669c2.514-2.226,4.993-8.085,4.195-11.5-.475-2.03-1.553-3.148-3.036-3.148a5.153,5.153,0,0,0-3.033,1.28,6.924,6.924,0,0,0-5-1.862,7.927,7.927,0,0,0-4.834,1.546c-.631.5-1.285.987-1.917,1.462a35.857,35.857,0,0,0-5.861,5.108c-3.678,4.318-7.124,8.953-10.456,13.434q-.963,1.3-1.924,2.584a3.175,3.175,0,0,0-.375,1.7c-.015.307-.031.625-.077.928A5.782,5.782,0,0,0,422.066,145.932ZM39.64,77.674l-.013.016-1.369,1.764c-.61.785-1.264,1.626-2.138,2.755.717-.24,1.311-.4,1.834-.544a5.706,5.706,0,0,0,1.984-.774c3.266-2.529,6.4-5.177,8.767-7.2A21.779,21.779,0,0,0,51.662,70.6a11.825,11.825,0,0,0,1.41-2.69A16.668,16.668,0,0,1,56.8,62.952c1.821-1.877,3.7-3.818,4.261-6.636.383-1.977.86-4.437,2.246-5.748,2.228-2.1,2.773-4.728,3.3-7.272a25.237,25.237,0,0,1,.926-3.58c1.056-2.868.48-5.68-.076-8.4a19.8,19.8,0,0,1-.6-5.917c.368-3.582-2.231-4.051-4.129-4.394l-.233-.042a1.748,1.748,0,0,0-.314-.027,6.4,6.4,0,0,0-4.234,2.626c-1.822,2.757-3.457,5.7-5.037,8.549-.838,1.51-1.7,3.061-2.579,4.568-.778,1.336-1.623,2.668-2.441,3.957a67.033,67.033,0,0,0-4.2,7.285c-.5,1.063-1.044,2.121-1.573,3.145-2.082,4.029-4.235,8.194-3.717,13.343a39.65,39.65,0,0,1-.586,9.453c-.205,1.46-.417,2.969-.559,4.48.562-.159,1.054-.3,1.637-.459l.731-.2Z" transform="translate(1251.638 69.023)" fill="#fff"/>
      <path id="Fill_4" data-name="Fill 4" d="M468.219,466.887h0c-1.152-.08-2.347-.159-3.57-.24-2.677-.177-5.432-.359-8.2-.583-3.778-.308-7.83-.658-11.854-1.138-1.127-.134-2.263-.36-3.362-.578-1.19-.236-2.42-.481-3.642-.61-1.771-.187-3.583-.258-5.335-.326-.914-.036-1.859-.072-2.795-.126-.232-.013-.6-.181-.625-.316-.467-2.465-2.178-2.669-3.833-2.866a5.5,5.5,0,0,1-2.521-.7,135.5,135.5,0,0,1-12.318-9.992c-.42-.377-.25-1.436-.086-2.46a13.177,13.177,0,0,0,.173-1.37c.249.017.527.027.907.027.281,0,.565-.006.849-.011l.187,0c.322-.007.644-.014.963-.014a6.529,6.529,0,0,1,3.053.546,51.445,51.445,0,0,1,5.27,3.383,50.4,50.4,0,0,0,5.39,3.447,11.09,11.09,0,0,0,4.653.825c.624.024,1.269.049,1.88.109,1.946.2,3.927.446,5.843.687a107.306,107.306,0,0,0,13.253,1.112q.534,0,1.068-.011a29.3,29.3,0,0,0,16.8-5.983,22.7,22.7,0,0,1,5.362-2.649c2.726-1.06,5.544-2.157,7.513-4.708,1.061-1.368,2.257-2.668,3.414-3.924.637-.691,1.293-1.4,1.925-2.127q1.769-2.013,3.521-4.039c2-2.308,4.059-4.676,6.131-6.98a33.643,33.643,0,0,1,2.609-2.514c.438-.392.875-.784,1.3-1.186.132-.127.289-.25.44-.37a2.11,2.11,0,0,0,.816-.923,60,60,0,0,1,10.945-20.943c3.08-3.912,4.255-7.869,5.5-12.059.3-.993.6-2.006.922-3.013.054-.175.141-.379.225-.577.184-.433.375-.881.239-1.051-3.515-4.34-1.392-7.51.855-10.867.413-.616.838-1.252,1.23-1.9.837-1.378.773-3.344.711-5.245-.026-.794-.052-1.615-.012-2.377.035-.669.118-1.369.2-2.046a11.385,11.385,0,0,0-.111-4.963,8.377,8.377,0,0,1,.235-5.38,15.766,15.766,0,0,0,.544-2.453q.257-2.3.523-4.588l0-.038c.289-2.5.587-5.092.858-7.655.095-.877.145-1.771.194-2.636.047-.834.1-1.7.184-2.542q.052-.5.1-1.007a50.809,50.809,0,0,1,.74-5.428A54.261,54.261,0,0,0,527.522,302a13.405,13.405,0,0,1,.742-6.391,25.309,25.309,0,0,0,1.034-5.254,23.3,23.3,0,0,1,1.367-6.217,12.361,12.361,0,0,0-1.442-11.192c-.911-1.313-1.672-3.147-1.318-4.288,1.289-4.2,1.045-8.491.809-12.637-.093-1.624-.188-3.3-.19-4.953,0-2.9-.282-5.767-.577-8.8-.132-1.365-.269-2.776-.382-4.214,3.324-1.207,2.508-3.742,1.719-6.193a11.089,11.089,0,0,1-.7-3.118,83.976,83.976,0,0,0-.956-10.747c-.289-2.18-.586-4.425-.77-6.638-.258-3.041-.416-6.142-.57-9.141-.138-2.7-.281-5.48-.494-8.214a5,5,0,0,0-1-2.117c-.331-.516-.705-1.1-1.115-1.843-6.565,16.3-13.45,31.995-25.3,44.745l.2.277c.889,1.24,1.471,2.051,2.042,2.842a1.348,1.348,0,0,0,.012.157c.012.1.022.188-.019.233-.779.9-1.56,1.837-2.315,2.739-1.9,2.265-3.855,4.605-5.969,6.715a22.852,22.852,0,0,1-3.631,2.768,32.012,32.012,0,0,0-2.735,1.953,7.149,7.149,0,0,1-4.545,1.394c-3.36,0-6.566-1.543-7.8-3.751a15.6,15.6,0,0,0-2.349-2.943c-.349-.373-.711-.758-1.048-1.147a8.138,8.138,0,0,0-.734-.7,3.994,3.994,0,0,1-1.146-1.349c-.345-.856-.7-1.705-1.057-2.553a51.961,51.961,0,0,1-3.515-10.427,34.876,34.876,0,0,0-3.222-8.4c-.682-1.421-1.386-2.888-2.068-4.489-.592.59-1.149,1.1-1.688,1.6a17.955,17.955,0,0,0-2.711,2.868c-1.3,1.88-2.487,3.883-3.635,5.819-.628,1.06-1.278,2.156-1.939,3.22-.126.2-.259.406-.392.608-1.146,1.745-2.33,3.547.794,6-1.073.827-2.145,1.625-3.182,2.4a88.572,88.572,0,0,0-6.965,5.548,18.726,18.726,0,0,0-2.717,3.436,23.893,23.893,0,0,1-2.128,2.85c-.355.385-.71.782-1.068,1.181-1.845,2.06-3.753,4.19-6.091,5.248a5.731,5.731,0,0,1-2.322.421,8.346,8.346,0,0,1-4.929-1.491c-3.284-2.7-6.625-5.7-8.223-10.11a7.012,7.012,0,0,0-1.667-2.261,6.728,6.728,0,0,1-1.637-2.231l-.218-1.325c-.194-1.183-.394-2.407-.611-3.606-.1-.581-.228-1.17-.348-1.739-.156-.745-.316-1.508-.438-2.264a6.51,6.51,0,0,1-.053-1.084,6.29,6.29,0,0,0-.058-1.106c-.3-1.747-.64-3.516-.968-5.227-.692-3.608-1.407-7.339-1.8-11.045a65.044,65.044,0,0,1-.176-8.142c.034-1.667.069-3.39.021-5.08a18.9,18.9,0,0,0-.5-3.366c-.11-.525-.224-1.063-.319-1.609-4.968,2.174-6.2,5.141-6.83,10.2-.454,3.657-3.029,7.156-4.523,8.915A59.1,59.1,0,0,1,386,221.885c-3.683,3.386-7.49,6.887-9.221,12.178a18.214,18.214,0,0,1-3.591,5.559c-.576.7-1.173,1.415-1.705,2.138s-1.044,1.427-1.565,2.141l-.024.032c-2.018,2.771-4.105,5.637-6.35,8.3a32,32,0,0,1-4.041,3.787c-.672.562-1.365,1.142-2.054,1.757a5.561,5.561,0,0,1,1.573,4.181c-.19,1.489-1.254,2.9-3.349,4.438a8.178,8.178,0,0,0-2.125,2.969c-.234.458-.456.89-.69,1.257-.523.089-1.038.151-1.536.21a11.653,11.653,0,0,0-2.98.613,13.411,13.411,0,0,1-4.89,1.234c-2.128,0-3.818-1.046-5.833-3.61-.5-.634-1.062-1.23-1.657-1.862-1.835-1.946-3.732-3.957-3.6-7.029.076-1.8.243-3.741.526-6.119.121-1.021.3-2.053.471-3.051.129-.746.262-1.516.37-2.276q.172-1.217.35-2.433l.01-.067c.41-2.829.835-5.754,1.137-8.649.261-2.492.69-5,1.1-7.429.461-2.7.937-5.485,1.185-8.255a14.833,14.833,0,0,0-.161-3.066,11.917,11.917,0,0,1-.074-3.641l.153-.8c.739-3.884,1.5-7.9,4.654-10.882.276-.263.209-.9.144-1.521a7.27,7.27,0,0,1-.058-.873c0-.169-.009-.349-.022-.524a2.021,2.021,0,0,1,.109-1.1,35.49,35.49,0,0,0,2.3-5.316c1.124-3.045,2.286-6.193,4.883-8.747,2.211-2.175,3.656-5.222,5.053-8.169.534-1.125,1.083-2.285,1.666-3.376s-1.456-3.469-2.475-4.176c-.321-.222-.672-.454-1.034-.693-1.888-1.246-4.026-2.657-4.12-4.1-.2-3.256-2.062-5.287-3.863-7.252a27.932,27.932,0,0,1-1.878-2.2,47.088,47.088,0,0,0-7.058-7.083c-.863-.752-1.751-1.526-2.6-2.3a5.26,5.26,0,0,0-3.567-1.362,4.975,4.975,0,0,0-4.556,2.667,12.2,12.2,0,0,1-1.285-.338,6.785,6.785,0,0,0-1.778-.381,1.212,1.212,0,0,0-.649.156,81.855,81.855,0,0,0-7.757,5.648l-.769.607a1.828,1.828,0,0,0-.448,1.052,4.143,4.143,0,0,1-.208.736c-.156.358-.292.759-.423,1.146a5.046,5.046,0,0,1-1.3,2.411,13.651,13.651,0,0,0-5.612,9.021c-.026.157-.218.277-.422.4a1.846,1.846,0,0,0-.388.289,20.238,20.238,0,0,0-5.16,13.3c-.166,3.394-1.826,6.779-3.432,10.053q-.289.59-.571,1.17c-2.588,5.358-5.234,11.8-5.234,18.982,0,.618-.125,1.746-.594,2.054-3.279,2.112-3.373,5.286-3.464,8.356a13.331,13.331,0,0,1-.979,5.652A7.468,7.468,0,0,0,284,229.51a8.931,8.931,0,0,1-.432,1.577c-.654,1.576-.439,2.44.495,4.083.752,1.331.6,3.209.453,5.024a22.756,22.756,0,0,0-.113,2.772c.047,1.1.166,2.222.28,3.3.124,1.173.251,2.381.29,3.57a32.291,32.291,0,0,1-.165,3.658c-.047.56-.093,1.121-.126,1.682s-.048,1.156-.062,1.721a21.056,21.056,0,0,1-.334,3.891,22.624,22.624,0,0,1-1.274,3.793c-.167.41-.324.8-.446,1.132a17.975,17.975,0,0,1-5.07.821c-7.638,0-10.633-6.772-13.045-13.709.073-.976.16-2.017.251-3.1.22-2.642.469-5.636.6-8.6l.03-.7a65.6,65.6,0,0,0-.091-10.068c-.137-1.212-.187-2.461-.236-3.669-.144-3.563-.294-7.247-2.653-10.512a8.118,8.118,0,0,1-1.09-3.254,10.358,10.358,0,0,0-.834-2.883,9.418,9.418,0,0,0-5.715-4.094,13,13,0,0,1-2.285-.818q-.659-.12-1.319-.236c-.969-.172-1.971-.349-2.95-.55-.834-.173-1.678-.381-2.494-.583a32.866,32.866,0,0,0-5.024-.97c-4.505-.392-9.1-.593-13.541-.788l-2.471-.109q-.178-.008-.35-.008c-1.639,0-2.871.544-3.38,1.493-.493.919-.289,2.143.574,3.446,3.282,4.937,2.943,10.35,2.615,15.585-.059.934-.119,1.9-.159,2.852-.026.62-.038,1.241-.05,1.863-.024,1.25-.048,2.543-.2,3.8a11.72,11.72,0,0,1-1.064,4.065c-.45.839-.891,1.687-1.333,2.536a60.678,60.678,0,0,1-5.961,9.869,15.454,15.454,0,0,1-1.816,1.794,8.092,8.092,0,0,0-2.614,3.193c-.941,3.128-3.2,5.14-5.383,7.086a20.7,20.7,0,0,0-4.5,5c-.73,1.277-2.563,1.838-4.5,2.431a17.471,17.471,0,0,0-3.434,1.312c-2.522,1.437-5.02,3.012-7.434,4.536-2.143,1.352-4.354,2.747-6.573,4.039-2.026,1.178-4.135,2.287-6.175,3.36-2.443,1.285-4.966,2.612-7.362,4.064-6.366,3.853-13.325,5.883-20.491,7.789-4.011,1.068-8.176,1.819-12.2,2.544-2.933.529-5.959,1.074-8.906,1.737a18.431,18.431,0,0,0-3.9,1.538,22.975,22.975,0,0,1-3.2,1.357,97.051,97.051,0,0,1-9.72,2.32,6.127,6.127,0,0,0-4.03,2.449,4.4,4.4,0,0,0-.617,3.4,17.678,17.678,0,0,1-.367,6.911c-.51,2.72-1.036,5.532.058,8.458a4.632,4.632,0,0,1-.344,3.736,6.008,6.008,0,0,1-3.832,3.027,15.165,15.165,0,0,1-3.616.615,4.732,4.732,0,0,1-4.359-2.557,8.151,8.151,0,0,0-2.714-2.313l-.188-.119c-1.355-.86-3.4-6.543-3.174-8.2.095-.685.246-1.392.393-2.076.562-2.623,1.143-5.333-1.315-7.477-.91.075-1.816.124-2.693.172a41.3,41.3,0,0,0-5.561.552,49.768,49.768,0,0,1-9.514.848,129.6,129.6,0,0,1-14.841-1.147c-1.075-.125-2.151-.25-3.226-.369a8.513,8.513,0,0,0-.963-.051c-.715,0-1.467.071-2.336.153-.647.061-1.378.13-2.188.176l-.174-.118c-2.124-1.447-4.767-3.248-7.932-3.248a8.44,8.44,0,0,0-2.481.378c-.559-.719-1.13-1.422-1.681-2.1a55.051,55.051,0,0,1-3.4-4.5,34.768,34.768,0,0,0-6.014-7.554c-.632-.555-.8-1.646-.475-3.073.58-2.541,2.665-5.692,5.022-6.35,6.118-1.709,8.624-6.491,11.047-11.116a52.867,52.867,0,0,1,2.688-4.729,7.258,7.258,0,0,1,2.4-1.879,2.145,2.145,0,0,0,1.4.823c.531,0,.926-.436,1.344-.9a4,4,0,0,1,.913-.824c2.44-1.384,5.021-2.6,7.518-3.785.97-.458,1.923-.909,2.87-1.369a1.216,1.216,0,0,1,.3-.079c.158-.028.307-.055.351-.144,1.782-3.434,5.415-5.736,10.8-6.843,3.358-.688,5.837-2.676,8.233-4.6,2.158-1.732,4.389-3.522,7.228-4.3s6.569-3.738,6.9-6.082a12.94,12.94,0,0,1,2.046-4.719c1.488-2.477,2.894-4.817,1.437-7.964a.316.316,0,0,1,.013-.184c.018-.07.034-.137.006-.175-2.5-3.224-1.947-6.466-1.357-9.9.181-1.054.368-2.143.46-3.231.03-.366.055-.721.079-1.069a12.7,12.7,0,0,1,1.313-5.675c.361-.665.04-1.65-.3-2.693a7.548,7.548,0,0,1-.511-2.368,16.8,16.8,0,0,1,.771-3.932c.182-.661.371-1.344.54-2.076-.73-.62-1.849-1.586-3.1-2.666l-.259-.224c-.259.153-.514.309-.765.464a7.94,7.94,0,0,1-4.172,1.593,6.161,6.161,0,0,1-2.655-.665A2.454,2.454,0,0,0,81,189.587a11.471,11.471,0,0,0-3.715,1.017,17.871,17.871,0,0,1-3.178,1.011c-2.044.358-4.142.587-6.171.809-1.584.173-3.219.351-4.817.59-1.866.279-3.753.616-5.577.942-2.1.374-4.263.761-6.407,1.062a6.254,6.254,0,0,1-.891.059,16.648,16.648,0,0,1-2.009-.166c-.41-.051-.833-.1-1.246-.134a4.937,4.937,0,0,1-.655-.123,3.6,3.6,0,0,0-.738-.124.427.427,0,0,0-.309.092c-2.619,2.575-5.869,2.7-9.011,2.826a22.282,22.282,0,0,0-5.108.6A66.113,66.113,0,0,1,18.4,200.431q-.062,0-.125,0a5.268,5.268,0,0,1-2.541-1.118,5.223,5.223,0,0,0-2.494-1.116,1.559,1.559,0,0,0-.216.015,5.621,5.621,0,0,1-.76.056c-1.87,0-2.207-1.225-2.533-2.41a5.175,5.175,0,0,0-.61-1.556,15.99,15.99,0,0,0-1.469-1.757c-.143-.153-.266-.286-.362-.4-.848-4.015-1.615-7.641-2.487-11.755l1.131.427c.838.316,1.5.565,2.16.811-.066-.236-.13-.475-.194-.716l-.029-.107q1.354-.383,2.706-.778c2.189-.634,4.448-1.288,6.692-1.851a4.476,4.476,0,0,1,1.08-.108c.156,0,.313,0,.47.007l.071,0c.2.008.4.016.6.016a3.77,3.77,0,0,0,1.157-.146c2.247-.712,4.517-1.483,6.712-2.228,3.3-1.122,6.713-2.279,10.11-3.26a22.632,22.632,0,0,1,4.206-.646,20.949,20.949,0,0,0,4.468-.728,49.329,49.329,0,0,0,7.292-3.24c.715-.365,1.412-.721,2.112-1.066a13.441,13.441,0,0,0,1.809-1.153,5.926,5.926,0,0,1,3.088-1.471h.041l.3,0c3.683,0,6.868-1.346,10.023-4.235a3.127,3.127,0,0,1,1.713-.774.651.651,0,0,1,.285.056,5.336,5.336,0,0,0,2.384.643c1.963,0,3.249-1.553,4.493-3.054.289-.348.586-.707.887-1.041.05-.057.1-.119.153-.181a1.416,1.416,0,0,1,.651-.549c.831-.182,1.661-.376,2.492-.569A65.838,65.838,0,0,1,91.473,153c2-.215,4.626-2.881,4.851-5.686.278-3.555.642-7.165.994-10.657l.006-.062.256-2.547a1.973,1.973,0,0,1,.139-.488c.087-.232.169-.45.09-.57-1.853-2.706-1.415-5.577-.991-8.354a18.478,18.478,0,0,0,.311-4.831,5.157,5.157,0,0,1,.141-1.518,6.026,6.026,0,0,0,.156-1.346c-.009-.213-.012-.444-.016-.684-.019-1.149-.04-2.448-.6-2.806a3.176,3.176,0,0,0-1.656-.386,3.682,3.682,0,0,0-2.032.522c-2.5,1.761-5.328,2.051-8.061,2.332-.985.1-2,.206-3,.378a11.805,11.805,0,0,0-2.853,1.038,11.812,11.812,0,0,1-2.864,1.041c-7.117,1.223-13.8,4.035-20.254,6.754-2.067.87-4.2,1.77-6.331,2.607-1.374.542-2.753,1.071-4.131,1.6-3.69,1.417-7.5,2.882-11.145,4.562a116.846,116.846,0,0,0-12.083,6.707,4.234,4.234,0,0,0-1.3,2.04c-.177.422-.36.858-.584,1.27a4.832,4.832,0,0,0-2.873-1.313c-1.416,0-2.331,1.249-3.3,2.571a9.784,9.784,0,0,1-2.31,2.5l-2.707-1.832-.08-.055c-2.29-1.555-4.659-3.162-7.057-4.727C.421,139.9-.8,132.266.622,128.4c.316-.056.651-.086.974-.115a5,5,0,0,0,1.94-.43c5.073-2.8,10.518-3.195,14.694-3.23a9.776,9.776,0,0,0,3.964-1.3c.311-.152.619-.3.924-.442,2.2-1,4.426-2.058,6.577-3.077s4.381-2.075,6.583-3.079a7.54,7.54,0,0,1,1.658-.451,9.193,9.193,0,0,0,1.423-.353,26.643,26.643,0,0,0,3.52-1.6,44.608,44.608,0,0,1,12.238-4.807,32.113,32.113,0,0,0,6.008-2.176c1.167-.512,2.375-1.042,3.588-1.475,1-.357,2.048-.623,3.062-.88a29.192,29.192,0,0,0,3.5-1.044,14.845,14.845,0,0,0,2.384-1.313,9.076,9.076,0,0,1,3.444-1.583,72.829,72.829,0,0,1,9.819-.68c1.175,0,2.353.031,3.5.092q.142.008.286.007c2.224,0,4.84-1.374,6.826-3.587a8.707,8.707,0,0,0,2.577-6.456,32.834,32.834,0,0,1,.014-5.364c.049-.859.1-1.747.116-2.617a17.435,17.435,0,0,0-.346-4.4,10.448,10.448,0,0,1,.952-1.882c.978-1.65,1.99-3.357.162-5.827-.445-.6-.159-1.711.144-2.882a11.717,11.717,0,0,0,.382-1.882c.117-1.535.309-3.094.495-4.6.544-4.411,1.107-8.969-.142-13.508a3.24,3.24,0,0,1,1.262-2.53c3.049-2.35,3.349-4.978,1-8.786-.532-.855-.789-2.657-.316-3.143,2.4-2.409,1.543-4.738.639-7.2-.09-.246-.177-.483-.261-.721a5.7,5.7,0,0,1-.077-2.44c.038-.362.078-.736.09-1.093.024-.747.1-1.519.18-2.266a14.022,14.022,0,0,0-.044-4.781A24.422,24.422,0,0,1,104.793.027c.387.028.8.062,1.221.1,1.156.1,2.457.2,3.747.231h.036a4.9,4.9,0,0,0,1.121-.18l.055-.013A4.757,4.757,0,0,1,112.013,0a1.787,1.787,0,0,1,.316.027c1.362.243,3.9.85,3.879,1.219-.082,2.188,1.194,3.5,2.429,4.761a8.2,8.2,0,0,1,1.994,2.67,10.132,10.132,0,0,0,.858,1.6c1.09,1.784,2.217,3.629-.462,5.607a1.854,1.854,0,0,0-.235,1.664,10.354,10.354,0,0,1,.191,4.885,10.437,10.437,0,0,0-.067,3.313c.645,3-.015,5.872-.655,8.653-.664,2.889-1.291,5.618-.49,8.349a11.1,11.1,0,0,1-.309,7.833A2.183,2.183,0,0,0,119.5,51.7a1.684,1.684,0,0,1-.173,1.55c-.195.885-.418,1.781-.634,2.648a44.358,44.358,0,0,0-1.2,5.952c-.847,7.855-1.47,15.668-2.017,22.941-.133,1.738-.1,3.456-.066,5.446.017.975.035,1.98.035,3.068.114,0,.232,0,.351,0h.121c.388,0,.777,0,1.167-.01.562-.007,1.125-.014,1.69-.014.907,0,1.65.019,2.339.059a5.522,5.522,0,0,1,3.452,1.349c1.532-.25,3.121-.642,4.657-1.022a33.561,33.561,0,0,1,7.736-1.3,11.442,11.442,0,0,1,2.549.267,7.09,7.09,0,0,0,1.549.177,9.643,9.643,0,0,0,4.558-1.427l.1-.054a8.848,8.848,0,0,1,4.141-1.372c.154,0,.311.007.47.021,3.567.32,7.2.546,10.714.765l.04,0c1.666.1,3.333.208,5,.321,1.464.1,2.957.258,4.4.412a68.264,68.264,0,0,0,7.171.513c.893,0,1.716-.035,2.517-.108.492-.045.991-.068,1.483-.068,4.529,0,8.41,1.933,12.162,3.8,1.061.529,2.158,1.075,3.252,1.568,2.51,1.131,4.509,3.9,5.97,6.187.466.729.474,2.2.025,4.155-.793,3.439-2.957,8.054-4.795,9.178-.906.555-1.84,1.1-2.744,1.626a65.545,65.545,0,0,0-5.856,3.695,13.926,13.926,0,0,0-2.268,2.329,9.889,9.889,0,0,1-2.991,2.745c-3.584,1.725-7.359,3.206-11.009,4.638-1.914.751-3.892,1.527-5.82,2.329a4.255,4.255,0,0,0-1.343,1.1c-.167.178-.334.356-.507.517a6.1,6.1,0,0,0-.611.71c-.436.562-.887,1.142-1.578,1.142a2.225,2.225,0,0,1-1.251-.5.227.227,0,0,0-.133-.033,2.458,2.458,0,0,0-1.556.942c-1.624,3.322-4.638,4.35-7.829,5.439l-.053.018c-1.574.537-3.129,1.218-4.633,1.878-1.081.474-2.2.963-3.312,1.4-3.81,1.475-7.691,2.893-11.663,4.337a7.155,7.155,0,0,1-1.23.276,3.225,3.225,0,0,0-1.826.658c-3.4,3.58-7.87,4.385-12.193,5.164-.735.132-1.472.265-2.2.411-3.21.638-4.959,1.621-6.218,5.482a11.315,11.315,0,0,0-.255,4.675c.161,1.827.314,3.552-.692,5.243-.191.326.289,1.063.754,1.775.214.327.433.664.583.954,1.047-.191,2.1-.447,3.12-.694a25.485,25.485,0,0,1,5.919-.969c.328,0,.651.014.959.042q.142.012.288.012a9.538,9.538,0,0,0,2.5-.5,9.64,9.64,0,0,1,2.521-.495c1.432,0,2.355.839,2.906,2.641,1.058-.31,2.108-.639,3.124-.958a63.006,63.006,0,0,1,7.474-2.018,3.558,3.558,0,0,1,.642-.056,9.891,9.891,0,0,1,2.8.592,17.554,17.554,0,0,0,1.743.478,21.1,21.1,0,0,0,4.1.458,11.119,11.119,0,0,0,5.628-1.411,1.165,1.165,0,0,1,.586-.128,5.627,5.627,0,0,1,1.3.228l.042.011c2.892.743,5.771,1.691,8.556,2.608,5.11,1.683,10.392,3.423,15.988,3.975,6.6.653,13.543,1.586,19.545,5.129a9.137,9.137,0,0,1,1.062.777,7.119,7.119,0,0,0,1.364.937,12.708,12.708,0,0,0,5.584,1.561c2.212,0,4.487-.867,7.668-2.365a3.934,3.934,0,0,1,1.7-.305c.431,0,.879.034,1.275.064.458.031.929.062,1.38.062q1.928-.032,3.856-.075c2.843-.059,5.783-.12,8.676-.12q.964,0,1.928.01c.65,0,1.318,0,1.98-.006h.063c.421,0,.844-.006,1.266-.006a23.116,23.116,0,0,1,6.485.675,53.507,53.507,0,0,1,8.174,3.372c1.186.568,2.406,1.151,3.619,1.683,1.107.488,2.248.958,3.35,1.412a69.253,69.253,0,0,1,7.112,3.247,22.554,22.554,0,0,1,3.968,3.072c.7.628,1.419,1.277,2.163,1.859a25.621,25.621,0,0,0,2.353,1.584c.37.23.738.458,1.1.693.272-.51.576-1.02.87-1.513a15.421,15.421,0,0,0,1.692-3.455,17.713,17.713,0,0,0,.458-5.5,5.982,5.982,0,0,1,.125-1.175,3.015,3.015,0,0,0-.224-2.409,3.844,3.844,0,0,0-2.76-1.094l1.57-2.307c1.864-2.739,3.707-5.446,6.065-8.922a15.716,15.716,0,0,0,.118-1.96c.055-2.216.13-5.247,1.621-6.361,2.517-1.887,2.91-4.264,3.291-6.562a12.24,12.24,0,0,1,1.1-3.925,2.526,2.526,0,0,0,.184-.555,1.408,1.408,0,0,1,.305-.7c5.149-4.7,6.229-7.374,8.189-12.228l.034-.084a10.307,10.307,0,0,0,.378-1.3c.44-1.773,1.043-4.2,3.685-4.2a5.367,5.367,0,0,1,.935.088.207.207,0,0,0,.036,0c.295,0,.839-.551.985-.925,2.136-5.508,5.143-7.234,9.844-9.423a11.748,11.748,0,0,1,5.061-1.12,25.549,25.549,0,0,1,6.4,1.095,34.626,34.626,0,0,0,4.682.991c5.269.61,8.585,4.223,11.793,7.716.507.553,1.014,1.1,1.528,1.645a5.1,5.1,0,0,0,1.035.757,7.076,7.076,0,0,1,.8.542c.088.073.188.155.294.241.58.472,1.374,1.119,1.284,1.319-1.151,2.528.192,3.507,1.613,4.543a7.247,7.247,0,0,1,1.6,1.427,30.648,30.648,0,0,1,4.022,8.037c.513,1.427,1.061,2.312,2.206,2.312a3.646,3.646,0,0,0,1.166-.227c.033-.01.066-.024.1-.037a.623.623,0,0,1,.216-.059.217.217,0,0,1,.037,0,11.749,11.749,0,0,0,1.777.146c3.322,0,5.359-1.75,6.229-5.349a2.756,2.756,0,0,1-1.618-2.117,3.625,3.625,0,0,1,1.716-2.87c2.5-1.908,5.2-3.625,7.818-5.286,1.089-.691,2.214-1.406,3.313-2.126q.251.374.5.747l.326.491c-.787.512-1.57,1.016-2.609,1.685l-1.765,1.136c.989-.144,1.881-.24,2.668-.324a16.12,16.12,0,0,0,4.094-.765,6.11,6.11,0,0,0,1.987-1.538,8.541,8.541,0,0,1,1.54-1.333,9.631,9.631,0,0,1,3.459-1.033c.4-.062.814-.134,1.226-.207a19.35,19.35,0,0,1,3.295-.392,7.087,7.087,0,0,1,1.252.1c1.083.191,2.22.285,3.32.376,3.117.258,6.339.524,8.8,3.008a4.429,4.429,0,0,0,3.43,1.682,8.864,8.864,0,0,0,1.786-.216,4.791,4.791,0,0,1,.973-.1,13.772,13.772,0,0,1,4.325,1.028,22.013,22.013,0,0,0,3.19.936A11.14,11.14,0,0,1,426,149.548c2.085,2.684,3.974,5.473,5.7,8.086.217.322-.171,1.147-.4,1.64-.322.7-.615,1.443-.9,2.163a15.56,15.56,0,0,1-2.64,4.927c-1.445,1.566-1.641,3.216-1.849,4.963a18.84,18.84,0,0,1-.31,1.991c-.326,1.436-.8,2.863-1.248,4.244-.382,1.163-.776,2.364-1.084,3.564a4.943,4.943,0,0,0-.025,1.667,5.437,5.437,0,0,1,0,1.569,9.338,9.338,0,0,1-.663,1.821,10.126,10.126,0,0,0-.637,1.7c-.122.5-.254,1.006-.387,1.511a21.863,21.863,0,0,0-.974,5.653,41.922,41.922,0,0,0,.5,5.261,38.341,38.341,0,0,1,.5,5.708,71.026,71.026,0,0,1-.64,7.619c-.21,1.747-.428,3.554-.548,5.337-.034.514-.093,1.038-.151,1.545-.257,2.263-.522,4.6,1.388,6.789a5.223,5.223,0,0,1,.778,3.066,11.7,11.7,0,0,0,.255,2.051,8.146,8.146,0,0,0,1.646,3.731.323.323,0,0,0,.235.074,7.821,7.821,0,0,0,2.332-.933c.246-.124.48-.242.687-.341a13.289,13.289,0,0,0,1.358-.783,9.645,9.645,0,0,1,1.822-.975c2.168-.776,3.571-2.074,3.948-3.654s-.283-3.345-1.851-5c.454-.664.882-1.381,1.3-2.073a16.466,16.466,0,0,1,3.313-4.38c.3-.247.6-.476.885-.7,1.518-1.166,2.829-2.172,2.74-4.772-.031-.876,3.117-2.3,5.036-2.7,1.24-.256,1.839-.533,2.139-.989.354-.538.276-1.321,0-2.668a24.069,24.069,0,0,1-.223-5.788,33.79,33.79,0,0,0-.006-4.328,13.8,13.8,0,0,0-1.141-3.867c-.232-.576-.472-1.171-.671-1.763,4.113-1.672,4.345-5.907,4.532-9.309l0-.064A61.7,61.7,0,0,0,450,170.077c-.2-1.606-.413-3.257-.57-4.906l2.473,0,2.26,0c1.137,0,2.249,0,3.36.01a2.292,2.292,0,0,1,.558.109,2.071,2.071,0,0,0,.526.1.5.5,0,0,0,.221-.045,7.241,7.241,0,0,1,3.064-.978,3.562,3.562,0,0,1,2.536,1.169c.376.369.76.733,1.143,1.095,2.769,2.621,5.382,5.1,5.1,9.5-.165,2.605-.116,5.268-.069,7.843l.008.41c.035,1.852.131,3.7.231,5.661.041.79.082,1.6.121,2.432-.538.47-1.423,1.256-1.757,1.553.235,1.149.458,2.25.674,3.316.51,2.516.987,4.869,1.485,7.19.156.723.272,1.611.384,2.469.271,2.071.552,4.213,1.41,4.492,1.93.63,2.31,1.929,2.678,3.185a6.1,6.1,0,0,0,.651,1.634,6.281,6.281,0,0,1,.549,3.171c.017.681.035,1.454.119,2.292,2.065,1.033,1.805,2.979,1.5,5.233-.23,1.719-.467,3.5.29,5.111.467-.394.9-.814,1.327-1.219,1.414-1.356,2.749-2.637,4.834-2.637a5.8,5.8,0,0,1,1.016.094.336.336,0,0,0,.059.005c.524,0,1.245-1.15,2.079-2.481.433-.691.881-1.4,1.339-2.016l-1.6-.225-1.608-.227c.571-1,1.054-1.849,1.464-2.567l.491-.861a6.724,6.724,0,0,0,1.255.129c2.577,0,3.455-1.9,4.305-3.737a7.677,7.677,0,0,1,1.889-2.894,20.989,20.989,0,0,0,6.589-8.792c.756-2.075.58-4.463.394-6.991-.081-1.107-.165-2.25-.165-3.367l1.208-.434,2.479-.89c-.891-1.265-1.207-2.111-1.062-2.818.177-.862,1.068-1.564,2.448-2.416,3.842-2.363,5.012-7.142,5.7-11.953a7.23,7.23,0,0,0-.294-2.591,7.957,7.957,0,0,1-.318-2.439,4.8,4.8,0,0,1,1.229-2.228c.324-.421.689-.9,1.042-1.435-1.587-2.751.118-4.838,1.923-7.048a18.222,18.222,0,0,0,2.031-2.833,10.906,10.906,0,0,0,1.355-7.888,16.084,16.084,0,0,1,.348-5.787,31.207,31.207,0,0,0,.475-3.321c.121-1.8.083-3.6.053-5.053-.012-.556-.022-1.058-.022-1.487l4.656-1.007,2.466-.533c3.183,1.688,6.509,3.46,10.01,5.326l1.245.663c3.8,4.94,3.3,10.811,2.779,17.026l-.063.749a26.562,26.562,0,0,0,.542,6.447c.217,1.309.442,2.662.541,3.99.2,2.716.275,5.489.346,8.17.027,1.025.054,2.049.088,3.072.043,1.248.078,2.5.114,3.745.069,2.449.14,4.981.276,7.472.027.479.094.954.159,1.412.254,1.789.494,3.479-1.644,5.14-1.2.927.1,5.022.532,6.255.122.426.255.851.388,1.277a24.01,24.01,0,0,1,.776,2.9c.128.724.266,1.449.4,2.174a49.246,49.246,0,0,1,1.075,8.022,15.666,15.666,0,0,1-1.07,5.019c-.2.6-.4,1.214-.569,1.817a22.485,22.485,0,0,1-.864,2.345c-.159.388-.321.784-.485,1.206l1.832.519.748.212c.264.807.573,1.588.871,2.343A15.769,15.769,0,0,1,547.7,234.2a91.691,91.691,0,0,1-.353,12.869,19.394,19.394,0,0,1-1.856,5.97l-.3.706a13.154,13.154,0,0,0,1.064,11.681l-.87,1.009L544,268.042c.713.606,1.427,1.209,2.178,1.845l1.992,1.688a4.48,4.48,0,0,0-.6,1.565c-.308,1.22-.626,2.481-2.768,2.877-.959.181-.832,1.555-.719,2.766a3.973,3.973,0,0,1-.011,1.49c-.906,2.091-.108,3.629.663,5.117a7.47,7.47,0,0,1,1.007,2.76c.013.163.328.295.662.434a4.489,4.489,0,0,1,.433.2c-1.373,1.424-2.213,2.507-2.151,3.537s1.036,2.023,2.7,3.374a3.182,3.182,0,0,1,.965,2.648l-.014.057c-.391,1.633-.878,3.666-2.053,4.6-2.544,2.024-2.374,4.545-2.209,6.983a14.64,14.64,0,0,1-.024,3.306,12.688,12.688,0,0,0-.066,2.6c.017.423.035.861.035,1.306,3.271,1.231,3,4.577,2.506,6.985a21.731,21.731,0,0,1-2.011,5.114,33.458,33.458,0,0,0-1.541,3.443,9.6,9.6,0,0,0-.405,2.476,7.17,7.17,0,0,1-.628,2.925c-1.226,2.214-.873,4.229-.5,6.364a23.4,23.4,0,0,1,.332,2.366c.051.7.114,1.4.177,2.1.381,4.226.776,8.6-1.693,12.944-1.208,2.129-1.428,4.874-1.641,7.529-.1,1.235-.2,2.512-.4,3.713a17.833,17.833,0,0,1-.418,1.789c-.053.2-.107.4-.158.593-.264,1.039-.536,2.076-.808,3.113-.555,2.112-1.128,4.3-1.617,6.464-.378,1.666-.717,3.369-1.044,5.016-.6,3.021-1.221,6.143-2.105,9.134a2.929,2.929,0,0,0,.277,2.041,2.888,2.888,0,0,1-.184,3.138,51.708,51.708,0,0,0-4.552,9.236c-.584,1.414-1.185,2.868-1.827,4.264a1.52,1.52,0,0,1-.583.536,3.156,3.156,0,0,0-.407.3c-1.216,1.122-1.8,1.784-1.807,2.513-.012.882.828,1.851,2.716,3.692l-1.607,1.323c-2.123,1.746-4.128,3.4-6.158,5.106-.232.194-.477.384-.723.576a7.676,7.676,0,0,0-2.068,2.066c-3.846,6.757-8.253,13.67-16.049,17.435-4.713,2.274-8.3,4.112-11.644,5.958-.377.209-.524.854-.694,1.6a11.935,11.935,0,0,1-.315,1.189,7.023,7.023,0,0,0-3.3-.883c-2.622,0-4.794,1.736-7.092,3.574l-.118.094a21.422,21.422,0,0,1-5.2,2.758c-.829.349-1.685.71-2.509,1.108ZM47.66,292.009q3.121.554,6.233,1.1a6.262,6.262,0,0,1,1.311.433,4.734,4.734,0,0,0,1.811.478,3.215,3.215,0,0,0,1.8-.614,4.253,4.253,0,0,1,1.974-.274l.451,0H61.4l.527,0a11.459,11.459,0,0,0,2.29-.17,11.461,11.461,0,0,1,2.361-.187l.43,0,.435,0a11.728,11.728,0,0,0,2.386-.187c1.476-.315,2.957-.748,4.39-1.167a40.059,40.059,0,0,1,6.66-1.543,4.615,4.615,0,0,0,4.306-3.718c.194-.667.418-1.363.635-2.036.875-2.716,1.778-5.522,1.314-8.018-.976-5.223-1.822-10.358-1.46-15.758a.4.4,0,0,0-.142-.255,4.326,4.326,0,0,0-2.277-1.088.616.616,0,0,0-.229.038,39.544,39.544,0,0,0-4.793,2.493c-.642.372-1.306.757-1.969,1.12-.337.184-.691.353-1.033.516-.4.188-.8.381-1.182.6-.671.387-1.342.8-1.99,1.206a36.082,36.082,0,0,1-3.961,2.234,28.494,28.494,0,0,1-3.757,1.3c-.78.23-1.586.467-2.362.742l-.323.115c-.8.283-1.711.6-1.966,1.172a11.654,11.654,0,0,0-.738,3c-.075.475-.152.962-.252,1.465-.122-.008-.255-.014-.415-.014-5.887,0-13.627,8.166-15.338,16.181q2.342.41,4.666.824l.052.016Zm157.1-83.863c-13.445.531-25.721,5.092-37.593,9.5l-.073.027q-1.476.548-2.952,1.094c-.295.2-.583.433-.888.675a8.319,8.319,0,0,1-2.113,1.36c-1.98.759-4.015,1.474-5.983,2.165-3.107,1.092-6.312,2.219-9.374,3.539a25.55,25.55,0,0,0-4.436,2.677,32.713,32.713,0,0,1-3.5,2.235c-3.17,1.662-6.512,3.125-9.743,4.54l-.05.022-1.616.709a23.37,23.37,0,0,1-2.61.905c-.589.178-1.194.362-1.777.574a47.035,47.035,0,0,0-6.336,3.039c-3.515,1.907-7.149,3.88-11.427,4.15-.734.046-1.508,2.425-1.807,3.446a5.036,5.036,0,0,0-.068,1.793,7.066,7.066,0,0,1,.018,1.4c-.065.532-.145,1.065-.224,1.6-.477,3.191-.97,6.491,1.8,9.767-1.148.857-2.226,1.661-3.287,2.451l-.086.064c-.946.7-1.878,1.4-2.833,2.112a6.118,6.118,0,0,1,.213.589,3.45,3.45,0,0,0,.765,1.49c3.229,2.978,3.861,6.312,2.116,11.149-.557,1.537.927,5.147,2.407,5.853a10.415,10.415,0,0,0,4.47.888,14.3,14.3,0,0,0,3.543-.443,24.944,24.944,0,0,0,4.2-1.667c2.1-.986,4.28-2,6.683-2a8.584,8.584,0,0,1,2.425.349.283.283,0,0,0,.077.01,1.331,1.331,0,0,0,.573-.248,3.2,3.2,0,0,1,.327-.183q1.828-.809,3.653-1.621c3.261-1.449,6.619-2.942,9.94-4.374a7.1,7.1,0,0,1,1.085-.329c1.228-.3,2.387-.588,2.132-2.616a.379.379,0,0,1,.128-.245,2.734,2.734,0,0,1,1.42-.811.3.3,0,0,1,.1.017,7.7,7.7,0,0,0,2.74.518c2.175,0,4.042-.968,6.019-1.992a16.835,16.835,0,0,1,5.96-2.17c-.733-.545-1.227-.914-1.717-1.28s-.985-.736-1.711-1.275c1.036-.185,1.952-.327,2.839-.464a34.241,34.241,0,0,0,4.573-.909q.637-.189,1.279-.376a40.158,40.158,0,0,0,8.608-3.238c.393-.222.754-.474,1.1-.718a4.607,4.607,0,0,1,2.638-1.125,3.555,3.555,0,0,1,1.24.24.954.954,0,0,0,.329.052,3.454,3.454,0,0,0,2-.906,21.662,21.662,0,0,0,2.022-2.349c.347-.444.7-.9,1.072-1.333a17.506,17.506,0,0,1,1.385-1.39,7.053,7.053,0,0,0,2.272-2.96c.76-2.96,2.821-4.882,4.815-6.741a27.864,27.864,0,0,0,2.746-2.812c.3-.379.619-.742.923-1.093a9.662,9.662,0,0,0,2.566-4.315,2.85,2.85,0,0,1,1.522-1.918c2.5-.641,2.938-2.452,3.439-4.55l.093-.387a48.8,48.8,0,0,1,2.475-6.985c1.941-4.7.877-9.2-.151-13.542C205.009,209.234,204.88,208.689,204.757,208.146Zm184.457-50.231v.007c-1.282,0-2.329.915-3.342,1.8a7.4,7.4,0,0,1-2.52,1.675,6.178,6.178,0,0,0-3.1,2.555,29.287,29.287,0,0,0-1.986,4.2c-.241.587-.487,1.187-.743,1.768-.786,1.789-1.556,3.615-2.3,5.381-1.679,3.982-3.414,8.1-5.415,11.993-.55,1.068-1.133,2.139-1.7,3.176-2.2,4.047-4.473,8.227-5.252,12.991a1.577,1.577,0,0,1-.9,1.089c-2.72.468-2.644,2.165-2.563,3.962.019.432.039.878.02,1.31l-.005.107c-.085,1.826-.2,4.327-1.313,5.2-1.518,1.186-1.628,2.193-1.795,3.718l-.043.384a43.288,43.288,0,0,1-2.53,10.574c-1.486,3.866-.943,6.289,1.875,8.365a13.047,13.047,0,0,1,1.223-.558c.934-.389,1.9-.792,1.963-1.3.36-2.832,2.287-4.444,4.15-6a11.366,11.366,0,0,0,3.689-4.323l.225-.573a45.359,45.359,0,0,1,2.807-6.227c.309-.533.607-1.074.906-1.615,1.608-2.912,3.272-5.923,6.524-7.622a9.14,9.14,0,0,0,3.718-3.019,106.449,106.449,0,0,0,6.564-12.232c.518-1.192.977-2.43,1.421-3.627,1.168-3.154,2.376-6.415,4.785-9.093a56.66,56.66,0,0,0,5.085-7l.533-.817a30.792,30.792,0,0,0,3.279-6.039,8.009,8.009,0,0,0,.173-4.745c-.131-.44-1.081-.627-2.086-.824-.457-.09-.929-.183-1.329-.3a5.318,5.318,0,0,1-.263-.526,3.718,3.718,0,0,0-1.067-1.553,10.752,10.752,0,0,1-1.212-1.037c-.832-.784-1.693-1.595-2.7-1.595a3.224,3.224,0,0,0-2.328,1.412,3.988,3.988,0,0,0-2.453-1.018ZM130.769,186.489a3.915,3.915,0,0,0-.4.028c-.1.01-.187.02-.273.024-1.132.07-2.263.134-3.394.2l-.04,0c-2.7.151-5.479.307-8.209.555-3.121.286-6.111.714-9.7,1.244a3.256,3.256,0,0,0-2.384,1.156,3.14,3.14,0,0,0-.2,2.538,33.932,33.932,0,0,1,.8,7.356,16.777,16.777,0,0,1-.267,2.82,12.759,12.759,0,0,0-.209,3.528c.09.655.192,1.308.294,1.96.511,3.266,1.039,6.643-.084,10.011l-.067.2a34.606,34.606,0,0,0-1.22,4.231,27.219,27.219,0,0,0-.379,3.092c-.04.474-.079.941-.129,1.406.426,1.361,1,2,1.82,2a5.064,5.064,0,0,0,2.177-.842c.353-.2.717-.4,1.083-.566a13.621,13.621,0,0,0,2.633.263,12.375,12.375,0,0,0,3.009-.368,9.935,9.935,0,0,0,4.453-3.013,11.838,11.838,0,0,1,4.834-3.323c3.048-.927,8.246-3.238,8.8-8.3.833.133,1.627.342,2.327.525a10.158,10.158,0,0,0,2.354.445,1.911,1.911,0,0,0,.9-.191,34.437,34.437,0,0,1,6.187-2.259c3.788-1.115,7.7-2.268,10.48-5.7a3.011,3.011,0,0,1,2.108-.794,2.411,2.411,0,0,1,.268.014,6.447,6.447,0,0,0,.681.035,14.288,14.288,0,0,0,2.951-.419,14.519,14.519,0,0,1,2.967-.417,5.726,5.726,0,0,1,2.676.627,1.156,1.156,0,0,0,.529.112,6.447,6.447,0,0,0,2.163-.65c.337-.141.653-.274.952-.378a15.266,15.266,0,0,0,2.9-1.5,10.867,10.867,0,0,1,4.886-1.949,8.114,8.114,0,0,0,6.868-4.181,5.7,5.7,0,0,0-.365-5.749c-.781-.167-1.484-.315-2.134-.451-1.351-.284-2.512-.528-3.644-.792a6.491,6.491,0,0,1-.917-.321,3.865,3.865,0,0,0-1.393-.379h-.066c-2.286.081-4.6.215-6.847.344-1.721.1-3.5.2-5.255.281q-.11,0-.221,0a11.865,11.865,0,0,1-1.79-.185c-.238-.037-.475-.074-.712-.1-1.366-.177-2.763-.44-4.115-.694a40.492,40.492,0,0,0-7.329-.924,16.8,16.8,0,0,0-1.7.084c-1.382.142-2.778.369-4.128.588a42.417,42.417,0,0,1-6.7.727,14.355,14.355,0,0,1-7.437-1.872A.821.821,0,0,0,130.769,186.489Zm-55.626-9.576c1.533,0,3.1.157,4.617.309l.076.008a46.865,46.865,0,0,0,4.7.32,13.711,13.711,0,0,0,6.993-1.656c1.319-.744,3.124-1.763,3.5-3.013.372-1.3-.131-3.733-1.176-4.535a1.117,1.117,0,0,0-.7-.19,9.235,9.235,0,0,0-2.68.71c-.39.142-.759.276-1.1.383a6.433,6.433,0,0,0-1.345.674,7.1,7.1,0,0,1-1.2.625c-3.825,1.369-7.722,2.729-11.49,4.044l-3.569,1.246c.067.251.132.5.2.754l.149.571A17.063,17.063,0,0,1,75.142,176.912Zm62.5-71.091a39.983,39.983,0,0,0-8.286,1.194c-.52.112-1.037.224-1.553.331-4.531.951-8.465,1.916-12.028,2.951-2.823.82-2.612,2.869-2.407,4.85a8.386,8.386,0,0,1,.025,2.425,28.45,28.45,0,0,0-.318,6.395c.022.874.044,1.771.033,2.645-.018,1.146-.013,2.279-.009,3.279,0,.389,0,.755,0,1.089-.125.9-.265,1.762-.4,2.595a41.9,41.9,0,0,0-.639,5.337,3.71,3.71,0,0,0,.746,2.808c.76.787,2.09.946,4.129.953h.049c2.951,0,5.5-1.074,6.645-2.8.923-1.39,1.763-1.956,2.9-1.956a9.567,9.567,0,0,1,1.718.228c.211.04.424.08.647.12a3.4,3.4,0,0,0,.586.049c1.529,0,3.313-.91,5.014-1.893a7.171,7.171,0,0,0,1.757-1.681,6.126,6.126,0,0,1,1.931-1.752,10.567,10.567,0,0,1,2.994-.689,9.072,9.072,0,0,0,3.261-.839,61.956,61.956,0,0,0,6.111-4.13c1.158-.852,2.355-1.732,3.565-2.546a10.624,10.624,0,0,1,2.244-1.045c.317-.118.616-.229.887-.347.617-.248,1.184-.51,1.732-.763a12.056,12.056,0,0,1,3.181-1.143l.274-.041c4.234-.634,8.234-1.234,9.149-6.684.1-.582.94-1.052,1.754-1.507a11.8,11.8,0,0,0,1.012-.609,11.462,11.462,0,0,1,1.026-.622,4.9,4.9,0,0,0,1.82-1.414,9.617,9.617,0,0,0,1.584-4.541c.018-.512-2.038-1.526-3.236-1.6-.717-.041-1.466-.061-2.29-.061-1.5,0-3.023.068-4.5.134-.659.029-1.316.059-1.972.082l-3.436.121c-4.971.174-10.1.354-15.137.621-.925.05-1.847.111-2.769.172-2.178.144-4.431.292-6.668.292q-.395,0-.789-.006Q137.811,105.822,137.642,105.822Z" transform="translate(0 0)" fill="#fff"/>
      <path id="Fill_7" data-name="Fill 7" d="M485.625,261.231a2.447,2.447,0,0,1-1.551-.417c-2.279-1.971-5.08-2.569-7.788-3.147-1.16-.247-2.357-.5-3.5-.862a10.769,10.769,0,0,1-1.918-.9c-.5-.276-1.026-.561-1.621-.818-.365-.224-.728-.452-1.09-.681-.8-.5-1.619-1.021-2.461-1.478-.869-.475-1.75-.889-2.77-1.369-.47-.221-.954-.449-1.468-.7-.488-.321-.987-.669-1.515-1.037a35.945,35.945,0,0,0-4.239-2.663,23.9,23.9,0,0,0-3.35-1.287,25.284,25.284,0,0,1-3.189-1.206c-1.973-.96-3.935-2.026-5.832-3.057-1.638-.89-3.331-1.81-5.026-2.66a28.507,28.507,0,0,0-2.864-1.182,23.687,23.687,0,0,1-3.373-1.453c-4.933-2.784-9.849-5.787-14.069-8.383-3.048-1.869-6.022-3.891-8.272-5.445l-.244-.17a22.084,22.084,0,0,1-3.919-3.19c-.475-.532-.934-1.076-1.379-1.6-2.171-2.567-4.221-4.991-8.007-6.336-3.045-1.081-5.6-3.663-8.065-6.159-.741-.75-1.507-1.524-2.267-2.237-.548-.512-1.118-1.012-1.67-1.5-2.174-1.906-4.414-3.871-5.711-6.919-1.57-3.686-5.861-5.1-10.122-6.224a5.561,5.561,0,0,1-2.117-1.43c-.219-.2-.436-.4-.655-.581-.9-.745-1.786-1.53-2.646-2.288-.413-.365-.822-.726-1.234-1.084-.5.593-1.077,1.173-1.631,1.734a13.433,13.433,0,0,0-3.133,4.082,49.043,49.043,0,0,0-2.281,8.665c-.163.818-.324,1.629-.5,2.435a13.039,13.039,0,0,0-.34,4.5c.938,5.978.141,11.043-2.438,15.486a5.791,5.791,0,0,0-.526,1.493,4.726,4.726,0,0,1-.655,1.675c-1.41,1.883-4.267,3.1-7.276,3.1a8.009,8.009,0,0,1-5.438-1.825,12.8,12.8,0,0,1-2.291-3.232c-.323-.571-.656-1.161-1.019-1.705-.444-.659-.936-1.312-1.412-1.944a19.584,19.584,0,0,1-2.776-4.453,7.6,7.6,0,0,1,.2-5.556c3.1-6.149,4.546-13,4.56-21.568.012-8.02.39-16.153.755-24.018.07-1.532.284-3.088.492-4.593a36.167,36.167,0,0,0,.5-6.346c-.154-3.721-.561-7.5-.954-11.147-.257-2.382-.523-4.846-.716-7.278a17.662,17.662,0,0,1,.175-3.358c.084-.73.172-1.483.2-2.222.1-2.629.175-5.3.251-7.885v-.039c.1-3.4.2-6.923.348-10.383.086-2.041.23-4.112.369-6.116.153-2.2.311-4.471.392-6.71.114-3.152.18-6.359.243-9.459.07-3.45.143-7.014.283-10.519.122-2.966.385-5.972.639-8.878.11-1.259.22-2.519.32-3.78.031-.4.091-.8.149-1.2a9.019,9.019,0,0,0,.142-2.334c-.3-2.512-.957-3.584-2.182-3.584a6.215,6.215,0,0,0-3.04,1.251,31.97,31.97,0,0,0-4.188,3.421c-.553.506-1.12,1.025-1.69,1.517a2.691,2.691,0,0,0-.393.491c-.188.274-.365.533-.566.536-4.1.137-7.054,2.217-9.287,6.546-.445.859-.884,1.724-1.4,2.736l-.589,1.162a4.875,4.875,0,0,0-1.728-.364c-1.765,0-2.793,1.4-2.974,4.051a3.976,3.976,0,0,1-1.745,2.629c-2.617,1.667-3.724,4.238-4.793,6.725-.318.738-.646,1.5-1.01,2.234a5.711,5.711,0,0,1-1.9,1.84,13.146,13.146,0,0,0-1.121.864c-.944.848-1.879,1.719-2.784,2.561-1.853,1.726-3.769,3.51-5.779,5.117a4.4,4.4,0,0,0-1.928,3.652c.074,1.866,1.529,3.89,3.994,5.554a35.476,35.476,0,0,1,3.707,3.041c.691.621,1.4,1.263,2.134,1.859,1.293,1.063,2.637,2.108,3.937,3.118.565.44,1.125.875,1.681,1.312a2.437,2.437,0,0,0,.213.142,1.1,1.1,0,0,1,.357.291c.759,1.11,1.619,2.215,2.45,3.284,3.1,3.982,6.3,8.1,5.29,13.545-.589,3.212.382,5.169,1.612,7.647l.028.056a6.244,6.244,0,0,1,.025,4.7c-1.163,2.79-.708,4.614,1.522,6.1-.133.268-.28.523-.423.77a5.069,5.069,0,0,0-.685,1.544c-.2,1.085-.309,2.179-.414,3.237-.258,2.613-.525,5.315-2.222,8.048-1.62,2.615-.966,6.8-.389,10.5.068.437.135.866.2,1.284.926,6.253-.5,10.884-4.609,15.016-1.031,1.035-1.065,3.039-1.1,4.977a21.214,21.214,0,0,1-.176,2.881l-.048.31a5.289,5.289,0,0,1-.923,2.741c-1.692,1.806-3.466,3.6-5.181,5.327-1.912,1.929-3.886,3.921-5.758,5.946a3.672,3.672,0,0,0-.653,1.749,2.738,2.738,0,0,1-.733,1.728,18.115,18.115,0,0,1-3.345,1.739,21.493,21.493,0,0,0-2.916,1.447,7.359,7.359,0,0,1-4.047,1.148,16.342,16.342,0,0,1-5.512-1.253c-1.493-.542-2.609-1.882-3.79-3.3a16.825,16.825,0,0,0-2.6-2.695,27.071,27.071,0,0,1-8.068-10.283q-.308-.644-.619-1.288c-2.531-5.259-5.136-10.67-5.438-16.734-.061-1.278-.247-2.575-.427-3.829a30.1,30.1,0,0,1-.439-5.1,11.7,11.7,0,0,1,.829-3.422,14.4,14.4,0,0,0,.8-2.92c.035-.28.072-.563.109-.85.306-2.338.623-4.756-.2-6.68-.943-2.22-.442-3.943.089-5.767.063-.216.121-.415.177-.618a24.108,24.108,0,0,0,.534-2.706c.076-.48.154-.974.246-1.457.039-.206.067-.413.095-.616.158-1.156.295-2.154,2.091-2.154.154,0,.32.007.5.023.058.005.118.008.18.008a2.59,2.59,0,0,0,2.413-3.671c-.178-.559.565-1.389,1.425-2.35.422-.471.857-.957,1.216-1.449l-.584-.49c-.793-.677-1.626-1.388-2.423-2.071.268-.981.555-1.994.849-3.032.727-2.564,1.477-5.213,2.1-7.925a7.251,7.251,0,0,1,1.358-2.547c.913-1.271,1.857-2.585,1.364-4.643-.544-2.279-1.059-3.436-2.363-3.436a6.368,6.368,0,0,0-2.549.8c-2.41,1.165-4.84,2.168-6.9,2.995-2.116.856-3.634,1.694-4.17,3-.425,1.033-.253,2.334.556,4.219a6.974,6.974,0,0,1,.1,4.493,6.294,6.294,0,0,0,.04,4.027,4.515,4.515,0,0,1-.054,2.518,10.989,10.989,0,0,0-.212,1.362c-.036.585-.015,1.2.005,1.8a8.017,8.017,0,0,1-.4,3.592,6.734,6.734,0,0,1-2.562,2.329c-.453.295-.92.6-1.33.92l.054.021c.309.116.62.234.936.351.042.877.149,1.784.252,2.662a16.524,16.524,0,0,1,.014,5.79,35.447,35.447,0,0,1-2.292,5.989,40.627,40.627,0,0,0-2.1,5.271,7.926,7.926,0,0,1-2.551,3.375c-1.551,1.435-3.154,2.918-2.628,5.658.159.823-1.055,1.962-2.126,2.967-.317.3-.612.575-.868.838-1.8,1.854-3.656,3.717-5.451,5.519s-3.65,3.665-5.451,5.519a1.3,1.3,0,0,0-.234.793,1.615,1.615,0,0,1-.205.79c-.3.412-.589.836-.88,1.261a17.556,17.556,0,0,1-3.154,3.793,9.379,9.379,0,0,1-1.2.795c-1.125.667-2.187,1.3-2.232,3.1a3.662,3.662,0,0,1-2.253,2.286.337.337,0,0,1-.08-.009,4.531,4.531,0,0,0-1.084-.146c-1.75,0-2.423,1.362-3.017,2.563a8.128,8.128,0,0,1-.688,1.221c-4.113,5.565-9.838,7.678-15.412,9.132a10.4,10.4,0,0,1-2.664.34,20.3,20.3,0,0,1-5.5-1,19.9,19.9,0,0,0-5.287-.974c-.357,0-.719-.641-1.069-1.26-.145-.257-.3-.523-.441-.732q-1.1-1.607-2.2-3.22l-.03-.044c-2.015-2.961-4.1-6.023-6.249-8.968a3.206,3.206,0,0,0-1.782-.934c-4.327-17.8-.394-34.5,3.77-52.177q.4-1.677.79-3.364l.323.723c.4.9.615,1.378.834,1.857.316.148.631.291.94.427q.221-.546.446-1.092c.384-.937.779-1.9,1.144-2.856.205-.545.387-1.112.563-1.66a18.422,18.422,0,0,1,1.219-3.129,31.241,31.241,0,0,0,2.457-7.19c1.032-4.071,2.1-8.281,5.827-11.266a12.376,12.376,0,0,1,2.187-1.3c.349-.177.71-.36,1.055-.554l.971.823c.265-.9.541-1.8.816-2.7l.049-.159c.693-2.256,1.409-4.588,1.956-6.914a3.116,3.116,0,0,0-.828-2.5,5.636,5.636,0,0,0-4.006-2.216c-.049,0-.1,0-.146,0q-.33.014-.662.014c-.871,0-1.764-.067-2.628-.132l-.156-.012c-.91-.071-1.849-.144-2.758-.144a9.1,9.1,0,0,0-5.217,1.356,1.13,1.13,0,0,1-.593.132,2.391,2.391,0,0,1-1.034-.237,3.378,3.378,0,0,0-1.615-.456,4.747,4.747,0,0,0-2.881,1.419c-.252.2-.512.411-.776.6A17.541,17.541,0,0,1,170.8,114.1c-.383.187-.764.373-1.138.571-.167.087-.35.163-.526.237a3.4,3.4,0,0,0-.984.543c-1.875,1.742-3.759,3.539-5.581,5.278l-1.707,1.627c-.119.116-.273.244-.429.375-.388.325-.789.66-.728.85a2.257,2.257,0,0,1,.01,1.78c-.345.627-1.17.843-1.967,1.052-.268.07-.545.143-.8.23-.108.037-.232.077-.362.119-.554.179-1.178.38-1.178.573-.063,3.189-2.573,5.116-4.59,6.665-.161.124-.319.245-.471.364a7.29,7.29,0,0,0-2.23,3.791c-.565,1.683-1.1,3.272-3.029,4.135-.944.428-1.413,2.61-1.5,3.972-.25,4.052-.73,7.312-4.356,9.33a.442.442,0,0,0-.2.285c-.339,2.492-1.74,4.688-3.094,6.812-1.385,2.173-2.694,4.225-2.735,6.391a19.945,19.945,0,0,1-1.748,7,22.128,22.128,0,0,0-1.562,5.281c-.037.3-.445.562-.839.814a4.994,4.994,0,0,0-.577.405c-.114.1-.244.2-.376.3-.347.261-.7.53-.781.853-.26,1.161-.532,2.321-.805,3.482a107.642,107.642,0,0,0-2.245,11.4,13.381,13.381,0,0,0,.144,3.249c.238,1.9.485,3.859-.713,5.716a5.273,5.273,0,0,0-.5,1.214c-.306.957-.622,1.945-1.91,1.946a4.282,4.282,0,0,1-1.223-.214.847.847,0,0,0-.251-.036A4.983,4.983,0,0,0,117.6,211.6c-.349.243-.679.472-.994.656a4.107,4.107,0,0,1-1.962.71,3.414,3.414,0,0,1-2.319-1.279,23.814,23.814,0,0,0-2.76-2.238c-.792-.581-1.61-1.182-2.369-1.852-3.6-3.18-3.63-6.825-3.664-10.684-.006-.7-.013-1.431-.042-2.154-.058-1.475-.078-2.976-.1-4.428-.068-4.95-.138-10.068-1.678-14.987a4.194,4.194,0,0,1,.149-2.115,4.366,4.366,0,0,0,.161-2.11,73.523,73.523,0,0,1-1.648-7.972C99.68,159,98.96,154.72,97.1,150.7a8.331,8.331,0,0,1-.488-3.07,8.015,8.015,0,0,0-1.1-4.553,38.774,38.774,0,0,0-2.99-3.52c-.421-.458-.843-.916-1.254-1.38a2,2,0,0,0-.35-.277c-.192-.131-.374-.255-.374-.385.009-2.2-1.415-2.974-2.923-3.8a11.392,11.392,0,0,1-1.65-1.024c-3.183-2.522-6.7-2.87-10.025-2.87-.857,0-1.725.025-2.565.049-.817.024-1.687.048-2.56.048q-.6,0-1.189-.017c-.064,0-.127,0-.189,0a2.685,2.685,0,0,0-2.4,1.041c-.567.876-.489,2.23.221,3.812a46.084,46.084,0,0,1,2.6,8.73,69.543,69.543,0,0,1,1.825,10.468,62.218,62.218,0,0,1-.105,7.881c-.055.979-.111,1.99-.148,2.99-.071,1.861-.165,3.692-.265,5.631-.048.939-.1,1.874-.143,2.827a6.845,6.845,0,0,1-.751.21c-.652.158-1.392.337-1.526.719-.146.413-.314.84-.491,1.292-.7,1.791-1.5,3.807-.907,5.142,2.217,5.024,1.1,8.756-1.262,12.813a30.173,30.173,0,0,0-1.8,3.955,20.086,20.086,0,0,1-3.3,6.1,11.184,11.184,0,0,1-3.278,2.219c-.362.189-.717.374-1.06.565-1.258.7-2.579,1.33-3.856,1.943l-.988.476c-.856.415-1.708.837-2.56,1.259-2.433,1.2-4.95,2.451-7.5,3.5a6.837,6.837,0,0,1-2.582.355l-.405,0h-.051q-.228,0-.455,0c-.262,0-.522,0-.777.016-.087,0-.185-.086-.278-.179s-.18-.169-.237-.169a8.309,8.309,0,0,1-2.517.388,16.722,16.722,0,0,1-5.71-1.37,20.005,20.005,0,0,0-4.746-1.317,2.414,2.414,0,0,0-.253-.013,2.282,2.282,0,0,0-1.863.986,5.3,5.3,0,0,0-.514,4.553,2.69,2.69,0,0,0,.5.915c-.531,1.391-1,2.632-1.46,3.842-.385,1.015-.761,2.008-1.158,3.05-.27,0-.557-.019-.861-.04-.328-.022-.664-.045-1-.045a4.594,4.594,0,0,0-1.1.116,11.436,11.436,0,0,1-2.724.349c-3.3,0-6.147-1.624-9.235-5.268C.462,215.089-.709,210.413.4,204.011a7.777,7.777,0,0,0,.031-1.8c-.086-1.437-.167-2.793,1.559-3.856.214-.134-.055-.994-.34-1.9-.132-.421-.268-.855-.353-1.214,1.248-1.02,1.851-1.618,1.91-2.274.061-.687-.467-1.432-1.675-2.842a1.557,1.557,0,0,1-.186-1,22.245,22.245,0,0,0-.583-5.186c-.551-2.862-1.121-5.82.28-8.84a21.169,21.169,0,0,0,1.677-7.171,6.7,6.7,0,0,0-.653-2.84,14.341,14.341,0,0,1-.516-1.509c-.087-.336-.2-.686-.313-1.025a5.411,5.411,0,0,1-.429-2.718,39.6,39.6,0,0,0,.634-4.068c.377-3.134.766-6.376,2.967-9.352,1.573-2.123,1.7-5.332,1.821-8.434.022-.547.043-1.085.072-1.607.118-2.116.058-4.282,0-6.378a61.283,61.283,0,0,1,.124-7.945,13.136,13.136,0,0,1,1.928-4.773c.445-.794.905-1.614,1.264-2.435a2.478,2.478,0,0,0,.1-1.763c-1.866-4.412-.563-8.582.7-12.614.311-.994.631-2.02.9-3.033a1.964,1.964,0,0,1,.8-.885,2.343,2.343,0,0,0,.812-.848c1.088-2.729,2.077-5.508,2.939-8.26a17.844,17.844,0,0,0,.537-2.554c.1-.6.195-1.217.335-1.814a13.051,13.051,0,0,1,.474-1.472,7.248,7.248,0,0,0,.591-2.432c0-.517-.029-1.018-.054-1.5-.1-1.977-.2-3.845,1.366-6.132,1.665-2.419,1.922-5.819,2.17-9.108.062-.823.126-1.673.212-2.481.064-.631-.68-1.353-1.4-2.051a12.108,12.108,0,0,1-.939-.981l.277-.534c1.247-2.393,2.537-4.867.75-7.756-.239-.393.435-1.673,1.033-2.153,4.455-3.635,4.063-8.021,3.087-13.376a32.931,32.931,0,0,1-.3-6.513c.021-1.056.043-2.144.014-3.207-.02-.8-.032-1.606-.043-2.41-.034-2.37-.069-4.8-.328-7.168a27.174,27.174,0,0,0-.773-3.741,27.941,27.941,0,0,1-.761-3.634A4.4,4.4,0,0,1,23.37,3.329a15.406,15.406,0,0,1,1.747-1.461A14.832,14.832,0,0,0,27.274,0c8.567.324,16.552,2.193,17,13.562l-.259.153c-1.944,1.146-4.148,2.446-2.086,6.1.846,1.5-.338,4.336-1.2,6.406a10.86,10.86,0,0,1-1.71,2.534,10.142,10.142,0,0,0-1.753,2.654,8.144,8.144,0,0,0-.064,3.867c.052.38.1.755.139,1.12a22.657,22.657,0,0,0,.4,2.349,12.42,12.42,0,0,1,.388,3.974c-1.013,7.808-2.252,15.928-3.786,24.822C34.017,69.429,33.5,71.31,33,73.129c-.462,1.678-.94,3.411-1.263,5.143-.079.43-.164.865-.249,1.3-.53,2.722-1.078,5.536-.481,8.045.337,1.426,2.042,2.579,3.691,3.694.574.388,1.115.754,1.6,1.132a2.55,2.55,0,0,0,1.215.356,2.9,2.9,0,0,1,1.179.318c4.581,2.969,9.318,6.039,13.816,9.274a3.921,3.921,0,0,1,1.12,3.285,8.889,8.889,0,0,0,4.028,9.639,25.253,25.253,0,0,1,2.379,1.861c.442.373.91.769,1.438,1.2.049-.025.131-.056.236-.1a5.239,5.239,0,0,0,1.676-.942,4.176,4.176,0,0,1,2.834-.959,4.617,4.617,0,0,1,3.2,1.145,2.752,2.752,0,0,0,1.74.6,1.54,1.54,0,0,0,.58-.1,10.449,10.449,0,0,1,4-.814,12.185,12.185,0,0,1,5.457,1.408,1.505,1.505,0,0,0,.676.133,6.451,6.451,0,0,0,.975-.107c.265-.042.535-.085.787-.1s.6-.063.919-.108a9.15,9.15,0,0,1,1.059-.111c.184,0,.286.027.312.082,1.075,2.474,3.271,2.916,5.395,3.342a9.977,9.977,0,0,1,3.805,1.31,16.3,16.3,0,0,0,4.09,1.8,12.089,12.089,0,0,1,4.658,2.314,20.861,20.861,0,0,1,3.927,6.378c.437.941.887,1.913,1.375,2.822a4.323,4.323,0,0,1,.317.957,2.313,2.313,0,0,0,.568,1.252c3.746,3.161,5,7.489,6.214,11.675.428,1.477.87,3,1.415,4.455a1.957,1.957,0,0,0,.438.6c.126.137.272.3.434.5a3.262,3.262,0,0,1,1.425-.634c.65-.178,1.321-.361,1.587-.9a2.365,2.365,0,0,0-.185-1.878,1.566,1.566,0,0,1,.238-.087,6.077,6.077,0,0,0,1.853-.854c3.249-2.993,7.029-7.229,7.418-13.475.185-2.879.375-5.856,3.162-7.95.979-.735,2.32-1.742,2.453-3.051a3.424,3.424,0,0,0-1.092-2.567,11.408,11.408,0,0,0,1.048-.558,3.667,3.667,0,0,1,1.462-.623.588.588,0,0,1,.212.037,5.768,5.768,0,0,0,2.018.448c2.487,0,2.487-2.855,2.487-4.389,0-5.863,3.877-9.583,7.511-12.609,6.087-5.083,13.372-10.631,22.812-12.12a8.076,8.076,0,0,1,1.225-.085c.314,0,.646.014,1.015.042a10.67,10.67,0,0,1,2.652.694,9.491,9.491,0,0,0,3.191.731,5.343,5.343,0,0,0,2.219-.491,1.539,1.539,0,0,1,.63-.122A8.634,8.634,0,0,1,187.1,96.5a18.19,18.19,0,0,0,2.123.941l.493.166c2.86.962,5.818,1.956,8.781,2.724l.034,0c.367,0,1.39-1.268,1.556-2.052.647-3.108,3.352-3.484,5.525-3.786a24.889,24.889,0,0,1,3.415-.239,24.284,24.284,0,0,1,6.868,1c1.775.524,3.629.9,5.423,1.27a53.559,53.559,0,0,1,6.58,1.638,117.78,117.78,0,0,1,14.892,6.224,13.945,13.945,0,0,1,3.594,3.027,23.931,23.931,0,0,0,2.16,2.09A4.268,4.268,0,0,0,251,110.724c.866,0,1.486-.67,1.893-2.049a7.526,7.526,0,0,0,3.347,1.16c1.393,0,2.275-1.021,3.045-3.524a3.094,3.094,0,0,1,.961-1.194c.148-.134.294-.267.425-.4,2.863-2.915,6.528-4.734,10.073-6.493.692-.343,1.376-.683,2.054-1.03,2.938-1.5,8.407-7.725,9.243-11.118.941-3.776,2.853-6.194,6.6-8.346a64.815,64.815,0,0,0,9.033-6.713c1.9-1.592,3.866-3.237,5.909-4.7,2.821-2.015,4.613-4.816,6.346-7.524a32.608,32.608,0,0,1,4.376-5.827c1.449-1.42,3.608-2.221,5.7-2.995.559-.207,1.136-.421,1.686-.643,1.012-.406,2.076-.766,3.105-1.115,4.1-1.39,8.337-2.827,10.3-7.441.7-1.644,1.269-3.369,1.824-5.037.326-.978.66-1.984,1.016-2.963a2.523,2.523,0,0,1,2.448-1.778,2.169,2.169,0,0,1,1.716.708c1.64,2.281,4,3.493,6.273,4.664.838.431,1.7.876,2.518,1.368,4.256,2.564,5.48,6.113,6.076,11.007A29.077,29.077,0,0,1,355.836,60.6a18.586,18.586,0,0,0-.266,6.527c.319,3.637.762,7.332,1.192,10.906.176,1.463.349,2.908.516,4.358-2.962,2.4-2.614,5.345-2.246,8.466.048.409.1.809.136,1.211-1.03.109-1.651.393-1.9.875-.279.529-.119,1.291.519,2.472a6.854,6.854,0,0,1,.922,3.124l0,.174a105.276,105.276,0,0,1-.536,11.328,9.114,9.114,0,0,1-1.38,3.271c-.3.514-.6,1.045-.866,1.592,2.588,2.331,2.54,5.423,2.488,8.7-.006.35-.011.7-.013,1.056a22.6,22.6,0,0,0,1.166,6.109c.32,1.137.65,2.312.957,3.635l2.2-.917c1.953-.814,3.633-1.513,5.311-2.232,1.019-.436,2.031-.893,3.313-1.471.614-.277,1.287-.581,2.051-.923.123-1.038,1.216-1.8,2.374-2.613,1.676-1.173,3.408-2.386,2.749-4.619.637-.792,1.225-1.535,1.784-2.241,1.239-1.564,2.308-2.914,3.45-4.23.454-.522.9-1.076,1.333-1.612a18.832,18.832,0,0,1,4.316-4.315c1.193-.749,2.337-1.636,3.444-2.494,2.925-2.268,5.949-4.614,10.255-4.726a19.671,19.671,0,0,0,6.034-1.523c.538-.2,1.074-.393,1.607-.575a7.934,7.934,0,0,0,1.96-1.119c.338-.238.688-.484,1.047-.694.523-.3,1.069-.591,1.6-.868a19.982,19.982,0,0,0,3.136-1.9,14.683,14.683,0,0,0,1.908-1.924,8.83,8.83,0,0,1,2.875-2.487A81.953,81.953,0,0,1,431.2,87.113,37.854,37.854,0,0,1,438.934,86l.093,0a4.8,4.8,0,0,1,2.177.76,5.117,5.117,0,0,0,.5.257c.794.831,1.535,1.651,2.251,2.444A42.048,42.048,0,0,0,448.7,94.2c1.909,1.536,2.417,3.246,1.553,5.228s-1.857,3.948-2.819,5.848c-.876,1.731-1.781,3.519-2.583,5.313a4.853,4.853,0,0,1-4.96,3.055c-.369,0-.774-.02-1.239-.06-.516.812-.987,1.663-1.443,2.486a18.748,18.748,0,0,1-3.445,4.938,64.443,64.443,0,0,1-9.321,6.669l-.924.583-.083.052a101.26,101.26,0,0,1-11.493,6.568,56.514,56.514,0,0,1-6.734,2.438c-1.676.528-3.409,1.074-5.064,1.726-.633.251-1.281.526-1.967.818-2.352,1-4.784,2.033-6.535,2.033-.069,0-.136,0-.2,0q-.226-.011-.448-.011c-2.506,0-4.549,1.072-6.525,2.109l-.053.028c-1.949,1.028-3.964,2.091-6.365,2.091q-.249,0-.505-.015-.154-.01-.305-.01a4.619,4.619,0,0,0-3.329,1.438,8.709,8.709,0,0,0-2.187,6.051c.025,1.826-.38,4.21-1.59,5.426-2.278,2.3-1.507,4-.614,5.972a14.6,14.6,0,0,1,.787,2,10.673,10.673,0,0,0,1.66,3.028c1.08,1.549,2.2,3.15,1.668,5.312-.052.214.828.721,1.305.9a1.686,1.686,0,0,0,.532.065c.074,0,.149,0,.222,0h.036l.179,0a.764.764,0,0,1,.583.152c.462.5.88,1.029,1.283,1.545,1.272,1.626,2.474,3.161,5.021,3.739a12.752,12.752,0,0,1,4.757,2.851c.661.535,1.345,1.088,2.03,1.554a4.223,4.223,0,0,0-.379,3.3,5.367,5.367,0,0,0,2.767,3.088,100.939,100.939,0,0,1,11.378,6.75c2.448,1.71,4.827,3.6,7.126,5.421,1.787,1.418,3.633,2.882,5.5,4.256a7.031,7.031,0,0,0,2.532.928c.488.115.992.234,1.508.4l-.307,1.167c-.115.436-.226.854-.336,1.277a2.181,2.181,0,0,1,.128.194c.1.156.194.314.285.314.139-.008.269-.012.4-.012,2.852,0,4.507,1.877,6.107,3.692.334.379.678.769,1.022,1.127a13.126,13.126,0,0,0,8.47,4.1c.571.067,1.039.656,1.534,1.278a3.919,3.919,0,0,0,1.5,1.364,70.863,70.863,0,0,1,8.671,4c4.463,2.307,9.078,4.692,14.333,5.42a8.676,8.676,0,0,1,3.081,1.34,15.168,15.168,0,0,0,1.925,1.024,16.459,16.459,0,0,0,2.6.735c.563.129,1.2.275,1.936.465,2.063,2.011,3.1,3.02,4.059,3.02,1,0,1.9-1.114,3.7-3.335a4.784,4.784,0,0,0,3.029,1.329c1.261,0,2.5-.7,4.149-2.35a11.386,11.386,0,0,1,8.138-3.746,11.052,11.052,0,0,1,2.825.381,2.654,2.654,0,0,0,.689.083,10.321,10.321,0,0,0,1.855-.257c.585-.113,1.247-.241,2.028-.34-.338,1.481-.659,2.945-.97,4.361-.727,3.315-1.414,6.441-2.254,9.56-.889,3.287-2.074,6.552-3.22,9.708l-.3.828a3.154,3.154,0,0,1-1.553,1.72,59.584,59.584,0,0,1-6.843,2.407A4.014,4.014,0,0,1,485.625,261.231ZM229.3,129.722v.007a18.809,18.809,0,0,0-3.055.267,62.837,62.837,0,0,1-7.575.6c-1.419.059-2.877.119-4.514.22-.435.405-.968.874-1.585,1.416a66.286,66.286,0,0,0-5.647,5.4,63.574,63.574,0,0,0-4.68,6.169c-.722,1.035-1.469,2.1-2.274,3.2a3.227,3.227,0,0,1-.33.228,3.661,3.661,0,0,0-1.532,1.517c-2.547,6.828-4.375,12.1-5.927,17.1a77.641,77.641,0,0,0-2.413,10.611c-.344,2.094-.5,4.248-.654,6.332-.084,1.142-.17,2.322-.286,3.481-.575,5.747-1.227,12.261,3.644,17.961,2.433-1.3,4.839-2.582,7.347-3.924l3.134-1.676c-.627,1.173-1.083,2.018-1.919,3.567l-.142.262c.578-.128,1.078-.2,1.519-.264a3,3,0,0,0,1.636-.5c3.268-3.282,6.067-6.257,8.557-9.095a8.02,8.02,0,0,0,1.083-1.858,4.564,4.564,0,0,1,1.584-2.207c.879-.479,1.362-.959,1.476-1.467.151-.672-.332-1.336-.892-2.106-.167-.229-.34-.467-.5-.715a23.924,23.924,0,0,0,4.024-3.542,19.752,19.752,0,0,1,5.368-4.315c3.761-1.866,7.164-6.49,6.391-11.718a8.3,8.3,0,0,1,.571-4.042,10.984,10.984,0,0,0,.58-2.337c.045-.425.553-.9,1-1.311.419-.387.78-.722.694-.941-1.253-3.186,1.147-4.449,3.075-5.463,1.709-.9,2.573-1.787,2.643-2.706.06-.789-.467-1.584-1.61-2.429.117-.735.17-1.464.221-2.169a8.472,8.472,0,0,1,.843-3.833c2.248-3.6-.275-5.605-2.3-7.214a11.627,11.627,0,0,0-7.549-2.513Zm61.928-3.791c-.155.311-.274.572-.376.8a4.411,4.411,0,0,1-.491.911c-2.285,2.979-3.216,6.516-4.117,9.936a38.607,38.607,0,0,1-2.423,7.221,71.53,71.53,0,0,0-4.323,12.749c-.422,1.56-.856,3.165-1.319,4.723a53.442,53.442,0,0,0-2.017,8.427c-.291,2.238-.466,4.53-.635,6.746-.23,3.01-.467,6.119-1,9.13-.876,5-1.291,9.869,3.186,14.379,1.062,1.074,1.858,1.553,2.581,1.553.7,0,1.376-.44,2.276-1.473a9.109,9.109,0,0,0,.737-1.028,5.226,5.226,0,0,1,1.268-1.508,8.253,8.253,0,0,0,2.065-2.5c.988-1.57,1.921-3.052,4.05-3.052a5.362,5.362,0,0,1,.933.087,11.367,11.367,0,0,0,.947-2.839c.441-1.854.858-3.6,2.9-4.654.5-.26.7-1.294.817-1.911.872-4.56,1.775-9.437,2.84-15.35.112-.618.277-1.248.437-1.856.631-2.405,1.283-4.889-1.21-7.22a4.3,4.3,0,0,1-.965-3.755c1.937-5.617,1.531-11.1.8-16.2-.619-4.381-2.78-7.413-5.282-10.924C292.363,127.556,291.8,126.764,291.231,125.931Zm-242.5,9.815a3.267,3.267,0,0,0-1.832.728c-1.994,1.454-4.077,2.855-6.091,4.21-1.886,1.269-3.836,2.58-5.708,3.932a43.5,43.5,0,0,0-11.873,12.69,23.388,23.388,0,0,0-1.579,3.369c-.228.56-.463,1.138-.723,1.723.2.682.427,1.444.688,2.322l.011.036.035.119c.258.869.549,1.849.881,2.973a2.107,2.107,0,0,1,1.674.657,2.8,2.8,0,0,1,.1,2.313c-.7,2.745-1.14,5.6-1.561,8.364-.2,1.315-.408,2.673-.641,4-.085.481-.154.98-.22,1.463a13.8,13.8,0,0,1-.943,3.957c-1.8,3.841-.606,7.72,2.976,9.652a11.609,11.609,0,0,0,1.98.763,9.439,9.439,0,0,1,2.314.964,6.224,6.224,0,0,0,3.391,1.056,5.139,5.139,0,0,0,4.6-2.807,2.716,2.716,0,0,1,.934-1,32.239,32.239,0,0,0,11.539-12.355l.307-.572c1.026-1.906,2.19-4.066,1.976-5.949-.519-4.586.968-8.34,3.36-12.566.984-1.74,1.3-3.107.964-4.178a3.7,3.7,0,0,0-2.139-2.121l-.2-1.893c-.116-1.078-.222-2.065-.323-3.05-.065-.623-.124-1.246-.183-1.868-.112-1.188-.227-2.4-.386-3.595-.127-.942-.245-1.886-.364-2.831-.375-2.976-.762-6.054-1.4-9.029C50.085,136.272,49.532,135.746,48.731,135.746ZM33.2,105.978a8.751,8.751,0,0,0-.467.743,2.423,2.423,0,0,1-.894,1.069c-3.255,1.485-4.513,4.349-5.731,7.118a31.736,31.736,0,0,1-1.477,3.059,3.111,3.111,0,0,0-.217,2.339c.816,2.378,1.711,4.715,2.658,7.19.366.957.739,1.932,1.116,2.932.711-.411,1.464-.808,2.261-1.227a31.89,31.89,0,0,0,5.745-3.568c.224-.187.432-.373.632-.552a4.075,4.075,0,0,1,2.867-1.446,4.506,4.506,0,0,1,.931.1,3.081,3.081,0,0,0,.639.069,2.816,2.816,0,0,0,2.337-1.253,3.307,3.307,0,0,0,.347-3.054c-.151-.4-.273-.821-.392-1.231a7.05,7.05,0,0,0-1.019-2.4c-.714-.917-1.365-1.923-2-2.9C38.732,110.178,36.861,107.288,33.2,105.978Zm386.009,2.264c-8.158,2.329-14.2,7.737-20.043,12.967a92.635,92.635,0,0,1-10.335,8.391,2.919,2.919,0,0,0,1.924-.278,4.819,4.819,0,0,0,.7-.441,2.347,2.347,0,0,1,1.146-.556c8.823-.489,14.41-4.189,17.082-11.31.132-.36.59-.612,1.032-.855a5.812,5.812,0,0,0,.633-.383q2.763-2.054,5.519-4.113l3.229-2.408c-.2-.233-.4-.463-.6-.695l-.28-.32Z" transform="translate(570.577 61.292)" fill="#fff"/>
      <path id="Fill_9" data-name="Fill 9" d="M86.587,119.764c-2.521,1.357-4.441,3.288-1.855,7.043q-1.119-.492-2.241-.981l-.712.606c.811,1.073,1.618,2.146,2.315,3.07-.385,1.755-1.156,3.626-1.1,5.472a18.909,18.909,0,0,0,1.236,4.8c-1.322,1.269-2.592,1.9-2.675,2.663-.453,4.244-1.279,8.612-.737,12.768.937,7.214-1.763,14.036-1.356,21.039.188,3.235-2.315,6.485.083,9.653a1.161,1.161,0,0,1,.012,1.092c-4.33,4.544.527,9.193-.17,13.778-.385,2.562-.481,5.166-.675,7.35-1.15,1.572-2.157,2.947-3.649,4.989-1.2-.477-4.506-.909-4.746-2.032C69.191,205.835,64.7,202.07,65,196.15c.509-9.931.308-19.9.4-29.856.018-2.222-.179-4.462.059-6.655.1-.934,1.085-1.761,1.643-2.648.829-1.316,2.74-2.465.573-4.257a1.905,1.905,0,0,1-.293-1.395c.351-3.916.752-7.829,1.162-11.97a4.908,4.908,0,0,1-.145-7.04c2.493-2.566,2.943-4.86.835-7.823-.462-.65-.3-1.909-.148-2.84.438-2.768,1.008-5.513,1.439-7.8-2.053-1.164-3.455-1.969-4.867-2.752-.425-.237-1.113-.726-1.288-.584-4.05,3.254-9.761-.082-13.857,3.815-1.057,1-4.978.817-5.825-.265-2.876-3.683-5.757-2.97-9.28-1.644-1.766.663-3.862.483-5.813.527-4.108.095-8.232-.1-12.322.2a16.244,16.244,0,0,0-4.537,1.48,63.953,63.953,0,0,0-6.408-3.594C.6,108.693-2.221,99.684,2.088,95.256c1.757-1.808,5.529-2.117,8.383-2.111,4.672.009,9.342.82,14.008,1.347a3.408,3.408,0,0,1,1.368.719c3.6,2.477,7.277,3.5,11.339,1.032.447-.271,1.325.312,2,.309,9-.057,18.009-.025,27-.319,2.271-.076,5.73-.549,6.5-2.02A18.283,18.283,0,0,0,74.4,84.584c-.444-5.046.173-9.385,3.483-12.452-.253-2.278-.53-4.049-.626-5.829-.225-4.2-.6-8.416-.438-12.6.092-2.357,1.236-4.655,1.744-7.015.512-2.376.8-4.8,1.227-7.192.45-2.515,1.026-5,1.412-7.529,1.2-7.845,2.376-15.681-.059-23.548-.564-1.827-.5-3.856-.774-6.223C82.127-.683,84.864-.238,88.1.763c3.711,1.146,7.573,1.587,9.752,5.6.358.656,2,.577,4.034,1.082,3.994,3.881,1.375,9.42.333,14.279-.82,3.825-3.813,7.144-5.739,10.745a4.38,4.38,0,0,0-.438,2.547c.271,1.8,1.057,3.446-.407,5.257-.339.423.965,2.234,1.6,3.6-2.1,2.158-1.858,4.289-.675,7.466,1.4,3.765-.364,7.829-3.292,10.862.727,1.546,1.439,3.064,2.157,4.595C90.988,68.25,89.8,74.135,92.5,78.377c1.335,2.1,2.05,4.97-.45,7.283-.527.489-1.147,1.726-.928,2.042.715,1.038,1.828,2.585,2.734,2.547a43.357,43.357,0,0,0,9.767-1.388c6.528-1.808,12.877-4.317,19.442-5.936,6.254-1.543,11.866-4.828,18.1-6.324,2.731-.653,5.428-1.442,8.55-2.282-.8,2.774,3.236,4.756.65,7.735-1.082,1.246-2.1,2.553-3.131,3.84-.428.533-1.06,1.035-1.2,1.647-1.069,4.636-2.4,5.86-6.916,6.2a1.48,1.48,0,0,0-1,.366c-4.031,5.488-11.077,5.9-16.018,9.893-.536.432-2.13-.628-3.264-.82a18.16,18.16,0,0,0-5.31-.473c-.447.06-.61,2.332-1.125,4.532-1.7-.145-3.97-.335-5.881-.5-4.259.726-8.374,1.395-12.479,2.143a8.224,8.224,0,0,0-3.547,1.054c-1.855,1.461-2.225,4.74-5.535,4.569-.358-.019-1.341,1.871-1.088,2.373a13.306,13.306,0,0,0,2.728,2.884" transform="translate(1051.791 123.162)" fill="#fff"/>
      <path id="Fill_11" data-name="Fill 11" d="M14.023,27.319a14.775,14.775,0,0,0-3.837-1c-3.274.053-5.135-1.339-6.4-4.255C3.039,20.35.724,19.145.324,17.443-.264,14.931.088,12.167.3,9.53c.208-2.677.726-5.335,1.18-8.5C5.409.676,9.463-.467,13.163.21c3.009.553,5.794,3.053,8.3,5.121C23.61,7.1,25.218,9.484,27.5,12.089a39.443,39.443,0,0,0-1.97,3.9c-.943,2.391-1.532,4.922-2.568,7.27-1.695,3.842-5.254,4.658-8.937,4.056" transform="translate(1484.883 61.292)" fill="#fff"/>
    </g>
    <path id="LONDON" d="M8.735,0V-63.534h7.388V-6.692h28.03V0ZM134.31-31.854q0,15.253-7.714,23.988T105.151.869q-14.037,0-21.663-8.583T75.861-31.941q0-15.514,7.648-24.053t21.729-8.539q13.689,0,21.381,8.691T134.31-31.854Zm-50.627,0q0,12.907,5.5,19.577t15.97,6.671q10.56,0,15.949-6.649t5.389-19.6q0-12.82-5.367-19.447t-15.884-6.627q-10.56,0-16.057,6.671T83.683-31.854ZM224.121,0H215.69L180.968-53.322h-.348q.7,9.387.7,17.209V0h-6.823V-63.534h8.344l34.635,53.1h.348q-.087-1.173-.391-7.54t-.217-9.1v-36.46h6.91Zm94.2-32.375q0,15.731-8.539,24.053T285.206,0h-17.6V-63.534h19.469q14.819,0,23.032,8.213T318.32-32.375Zm-7.822.261q0-12.429-6.236-18.73t-18.534-6.3H274.993V-6.388h9q13.211,0,19.86-6.5T310.5-32.115Zm103.152.261q0,15.253-7.714,23.988T384.49.869q-14.037,0-21.663-8.583T355.2-31.941q0-15.514,7.648-24.053t21.729-8.539q13.689,0,21.381,8.691T413.649-31.854Zm-50.627,0q0,12.907,5.5,19.577t15.97,6.671q10.56,0,15.949-6.649t5.389-19.6q0-12.82-5.367-19.447t-15.884-6.627q-10.56,0-16.057,6.671T363.022-31.854ZM503.46,0h-8.431L460.307-53.322h-.348q.7,9.387.7,17.209V0h-6.823V-63.534h8.344l34.635,53.1h.348q-.087-1.173-.391-7.54t-.217-9.1v-36.46h6.91Z" transform="translate(-1613.712 -260.133)" fill="#fff"/>
  </g>
</svg>
